/* XPM */
static char * icon_xpm[] = {
"50 54 649 2",
"  	c None",
". 	c #3F42B9",
"+ 	c #3F42BC",
"@ 	c #4549C3",
"# 	c #4F56CB",
"$ 	c #4B51C0",
"% 	c #3F38AF",
"& 	c #706BC6",
"* 	c #3A32B5",
"= 	c #1F14AE",
"- 	c #2620B7",
"; 	c #474ACC",
"> 	c #5964D7",
", 	c #292E5C",
"' 	c #2219A4",
") 	c #E2E1F3",
"! 	c #EBEBF8",
"~ 	c #F0EFF9",
"{ 	c #A19DDF",
"] 	c #433BC4",
"^ 	c #2D23C0",
"/ 	c #2419C1",
"( 	c #312BCB",
"_ 	c #5861DA",
": 	c #0C0F15",
"< 	c #3737B8",
"[ 	c #5F59C0",
"} 	c #EAE9F7",
"| 	c #E5E4F6",
"1 	c #E2E1F6",
"2 	c #DFDEF4",
"3 	c #DBDAF4",
"4 	c #CDCBF1",
"5 	c #6F69D9",
"6 	c #291FCC",
"7 	c #281ECF",
"8 	c #2E25D5",
"9 	c #5860DF",
"0 	c #000000",
"a 	c #4B57A0",
"b 	c #1F16A8",
"c 	c #CAC8EB",
"d 	c #DBD9F2",
"e 	c #D8D6F2",
"f 	c #D4D3F2",
"g 	c #D1CFF2",
"h 	c #CFCCF2",
"i 	c #CCCAF2",
"j 	c #C7C4F1",
"k 	c #B9B6EF",
"l 	c #837CE6",
"m 	c #2F24D9",
"n 	c #2B21DC",
"o 	c #372FE1",
"p 	c #6370E3",
"q 	c #0B0C17",
"r 	c #231AA8",
"s 	c #423AB8",
"t 	c #D7D5F1",
"u 	c #CDCBEE",
"v 	c #CAC8EE",
"w 	c #C7C4EE",
"x 	c #C7C4EF",
"y 	c #C4C1F0",
"z 	c #BFBDEF",
"A 	c #BBB7F0",
"B 	c #BAB6F1",
"C 	c #B8B5F2",
"D 	c #9E99EF",
"E 	c #7067EA",
"F 	c #2B1FE5",
"G 	c #342DE9",
"H 	c #4949E9",
"I 	c #000101",
"J 	c #4C54C1",
"K 	c #1C12AA",
"L 	c #A19DDD",
"M 	c #C2C0EA",
"N 	c #C0BDEA",
"O 	c #B9B7EB",
"P 	c #5851D1",
"Q 	c #5149D1",
"R 	c #5C54D7",
"S 	c #716ADF",
"T 	c #8D88E8",
"U 	c #ACA8EF",
"V 	c #ACA8F1",
"W 	c #A8A3F2",
"X 	c #A6A1F3",
"Y 	c #7E77F1",
"Z 	c #4B41EF",
"` 	c #2A1EEF",
" .	c #4746ED",
"..	c #6370E8",
"+.	c #323B5E",
"@.	c #261EAF",
"#.	c #423BBB",
"$.	c #BFBCE9",
"%.	c #B5B2E7",
"&.	c #A29EE3",
"*.	c #261BC1",
"=.	c #261DC6",
"-.	c #271DC9",
";.	c #271CCE",
">.	c #251AD1",
",.	c #2317D5",
"'.	c #443BDE",
").	c #6E66E8",
"!.	c #8781EF",
"~.	c #9892F2",
"{.	c #9891F4",
"].	c #8983F4",
"^.	c #5046F2",
"/.	c #2E20F1",
"(.	c #4644EC",
"_.	c #5B65E7",
":.	c #2F2CAF",
"<.	c #1B12AD",
"[.	c #928ED9",
"}.	c #ABA7E3",
"|.	c #8681DA",
"1.	c #251BC0",
"2.	c #261CC4",
"3.	c #271DC8",
"4.	c #281DCC",
"5.	c #291ED0",
"6.	c #2A1FD5",
"7.	c #2B20D8",
"8.	c #2B1FDC",
"9.	c #281DDF",
"0.	c #2F23E4",
"a.	c #6056EC",
"b.	c #7C74F1",
"c.	c #837CF3",
"d.	c #847EF4",
"e.	c #5147F0",
"f.	c #3023EC",
"g.	c #3E39E8",
"h.	c #636FE4",
"i.	c #4E59AE",
"j.	c #2017AD",
"k.	c #4F49C2",
"l.	c #A29EE0",
"m.	c #7D77D6",
"n.	c #251BBE",
"o.	c #261CC3",
"p.	c #261CC7",
"q.	c #271ECA",
"r.	c #291ECE",
"s.	c #2A1FD3",
"t.	c #291ED6",
"u.	c #2A20D9",
"v.	c #2C20DD",
"w.	c #2C21E0",
"x.	c #2C21E3",
"y.	c #2C20E5",
"z.	c #2D21E7",
"A.	c #574DED",
"B.	c #6F67EF",
"C.	c #7169EF",
"D.	c #5147EB",
"E.	c #2C21E4",
"F.	c #3831E1",
"G.	c #6A7BE3",
"H.	c #131720",
"I.	c #302CBA",
"J.	c #241BB1",
"K.	c #9D99DE",
"L.	c #7C78D5",
"M.	c #251BBC",
"N.	c #251BC1",
"O.	c #271DC5",
"P.	c #291FD0",
"Q.	c #291FD4",
"R.	c #2A1FD7",
"S.	c #2A1FDA",
"T.	c #2B20DF",
"U.	c #2D21E2",
"V.	c #2D21E4",
"W.	c #2C21E5",
"X.	c #2D22E5",
"Y.	c #3227E5",
"Z.	c #5248E7",
"`.	c #5D55E7",
" +	c #483FE3",
".+	c #2B20DB",
"++	c #3B37DA",
"@+	c #393AAD",
"#+	c #1E14AD",
"$+	c #6A64CB",
"%+	c #7E79D5",
"&+	c #251BBB",
"*+	c #251CBF",
"=+	c #271DC7",
"-+	c #281ECA",
";+	c #291DCD",
">+	c #291FD1",
",+	c #291ED4",
"'+	c #2B1FD9",
")+	c #2B20DC",
"!+	c #2C21DE",
"~+	c #2C20DF",
"{+	c #2C20E0",
"]+	c #2B20DE",
"^+	c #2D22DD",
"/+	c #342ADD",
"(+	c #463DDD",
"_+	c #3A2FD8",
":+	c #2B21D2",
"<+	c #4343D6",
"[+	c #424E8B",
"}+	c #1E14AC",
"|+	c #3C34BA",
"1+	c #7670D1",
"2+	c #241BB9",
"3+	c #251BBD",
"4+	c #251CC0",
"5+	c #271DC4",
"6+	c #271ECB",
"7+	c #291DCE",
"8+	c #2A1FD6",
"9+	c #2B20D9",
"0+	c #2B1FDA",
"a+	c #2C20DC",
"b+	c #281DD4",
"c+	c #2D23D2",
"d+	c #3025D0",
"e+	c #2E26CB",
"f+	c #4F56D6",
"g+	c #0B0E10",
"h+	c #3937C0",
"i+	c #2B23B3",
"j+	c #6F6ACD",
"k+	c #241BB7",
"l+	c #251CBE",
"m+	c #261CC1",
"n+	c #291FD2",
"o+	c #2A20D8",
"p+	c #291ED3",
"q+	c #291ECF",
"r+	c #271DCB",
"s+	c #271CC6",
"t+	c #241AC2",
"u+	c #3D3BCA",
"v+	c #3D42A6",
"w+	c #1F16AC",
"x+	c #5952C4",
"y+	c #231AB4",
"z+	c #231BB8",
"A+	c #241BBB",
"B+	c #261CC2",
"C+	c #271CC8",
"D+	c #291ED1",
"E+	c #291ED2",
"F+	c #281ED0",
"G+	c #281DCD",
"H+	c #281ECB",
"I+	c #261CC6",
"J+	c #261BC0",
"K+	c #241CBC",
"L+	c #2116B7",
"M+	c #5057CF",
"N+	c #323A6D",
"O+	c #1E14A9",
"P+	c #2018AE",
"Q+	c #2219B2",
"R+	c #241AB6",
"S+	c #241BBC",
"T+	c #281DC9",
"U+	c #271ECC",
"V+	c #281DCE",
"W+	c #281DCF",
"X+	c #281DCA",
"Y+	c #271DC6",
"Z+	c #261BBF",
"`+	c #241CBD",
" @	c #241AB9",
".@	c #2218B2",
"+@	c #3838BE",
"@@	c #0F1319",
"#@	c #3939BF",
"$@	c #2218AC",
"%@	c #2219AF",
"&@	c #221AB2",
"*@	c #261CBF",
"=@	c #261DC5",
"-@	c #271EC9",
";@	c #261DC4",
">@	c #241ABA",
",@	c #241BB6",
"'@	c #231AB0",
")@	c #2118AD",
"!@	c #231BAB",
"~@	c #6574D9",
"{@	c #4850AE",
"]@	c #2118A9",
"^@	c #2219B3",
"/@	c #241AB8",
"(@	c #251CC2",
"_@	c #271DC3",
":@	c #261CC5",
"<@	c #261DC3",
"[@	c #261BBE",
"}@	c #2319B1",
"|@	c #2119AD",
"1@	c #2119AB",
"2@	c #2117A7",
"3@	c #1F18A3",
"4@	c #4A50C3",
"5@	c #262B5A",
"6@	c #1E14A4",
"7@	c #2118AA",
"8@	c #2319B2",
"9@	c #241AB5",
"0@	c #231AB7",
"a@	c #251BBA",
"b@	c #251CBD",
"c@	c #2118AB",
"d@	c #2118A7",
"e@	c #2018A4",
"f@	c #1F17A1",
"g@	c #1E159D",
"h@	c #3636AF",
"i@	c #151926",
"j@	c #2A25AE",
"k@	c #2119AA",
"l@	c #231AB5",
"m@	c #241BBA",
"n@	c #251CBC",
"o@	c #2319B3",
"p@	c #2118A8",
"q@	c #2017A5",
"r@	c #1D14A0",
"s@	c #1C139D",
"t@	c #3231B1",
"u@	c #4449BC",
"v@	c #6676D8",
"w@	c #4F57C4",
"x@	c #1F18A4",
"y@	c #2117A6",
"z@	c #2219AE",
"A@	c #231AB1",
"B@	c #231BB7",
"C@	c #231AB3",
"D@	c #2118AC",
"E@	c #1E15A6",
"F@	c #2620AC",
"G@	c #3A3BB3",
"H@	c #3A3F95",
"I@	c #384370",
"J@	c #151A23",
"K@	c #3D4882",
"L@	c #1F17A0",
"M@	c #2017A6",
"N@	c #2018A8",
"O@	c #231AB6",
"P@	c #2219B0",
"Q@	c #2219AD",
"R@	c #2017A9",
"S@	c #2D28B3",
"T@	c #4045AC",
"U@	c #343E60",
"V@	c #0B0D1A",
"W@	c #1F179D",
"X@	c #1F16A0",
"Y@	c #2119A9",
"Z@	c #221AB1",
"`@	c #221AB0",
" #	c #2018A9",
".#	c #241DAB",
"+#	c #494FB9",
"@#	c #131621",
"##	c #06080C",
"$#	c #312FAB",
"%#	c #1E169C",
"&#	c #1E169F",
"*#	c #2017A1",
"=#	c #2219AA",
"-#	c #2119AE",
";#	c #2018A7",
">#	c #3C3CBC",
",#	c #2F3859",
"'#	c #515ABB",
")#	c #1D1599",
"!#	c #1E179B",
"~#	c #1E169E",
"{#	c #2018A2",
"]#	c #2017A4",
"^#	c #2118A6",
"/#	c #2218AB",
"(#	c #2019A3",
"_#	c #3C3EB4",
":#	c #404B7F",
"<#	c #1E1898",
"[#	c #1E1598",
"}#	c #1E169A",
"|#	c #1F179C",
"1#	c #1F169E",
"2#	c #1F17A2",
"3#	c #2018A3",
"4#	c #2018A5",
"5#	c #2018A6",
"6#	c #1F169F",
"7#	c #1E159C",
"8#	c #2A27A5",
"9#	c #6B7CDD",
"0#	c #06070B",
"a#	c #241E99",
"b#	c #1C1595",
"c#	c #1D1597",
"d#	c #1D1699",
"e#	c #1E169B",
"f#	c #1F169D",
"g#	c #1E169D",
"h#	c #1C1495",
"i#	c #474EBB",
"j#	c #272497",
"k#	c #1C1491",
"l#	c #1C1593",
"m#	c #1D1695",
"n#	c #1D1697",
"o#	c #1D1598",
"p#	c #1D169A",
"q#	c #1E179C",
"r#	c #1E179D",
"s#	c #1E179E",
"t#	c #1C1594",
"u#	c #1C1492",
"v#	c #19118D",
"w#	c #3B3EAD",
"x#	c #4146AA",
"y#	c #1A128C",
"z#	c #1C158F",
"A#	c #1D1696",
"B#	c #1B1590",
"C#	c #1B148E",
"D#	c #1B148C",
"E#	c #1A1389",
"F#	c #2C2A9A",
"G#	c #4D59A2",
"H#	c #191189",
"I#	c #1A138C",
"J#	c #1C158E",
"K#	c #1C1695",
"L#	c #1C1696",
"M#	c #1B158F",
"N#	c #1B138A",
"O#	c #1A1488",
"P#	c #191386",
"Q#	c #1A1384",
"R#	c #1D1887",
"S#	c #6A7ADA",
"T#	c #364166",
"U#	c #1F1A8D",
"V#	c #1B148B",
"W#	c #1B148D",
"X#	c #1C158D",
"Y#	c #1C1490",
"Z#	c #1B1592",
"`#	c #1D1592",
" $	c #1C148F",
".$	c #1B1490",
"+$	c #1B1488",
"@$	c #1A1487",
"#$	c #1A1285",
"$$	c #191283",
"%$	c #191380",
"&$	c #18117E",
"*$	c #19137D",
"=$	c #6676D4",
"-$	c #000100",
";$	c #292897",
">$	c #1A1386",
",$	c #1B1489",
"'$	c #1A138A",
")$	c #3E42B1",
"!$	c #5461B4",
"~$	c #1B1389",
"{$	c #1A1385",
"]$	c #191381",
"^$	c #19127F",
"/$	c #18117C",
"($	c #18127B",
"_$	c #171178",
":$	c #171277",
"<$	c #5D6BC9",
"[$	c #2A2A8F",
"}$	c #191280",
"|$	c #1A1284",
"1$	c #1A1387",
"2$	c #181086",
"3$	c #464DAF",
"4$	c #0E1119",
"5$	c #3C41A7",
"6$	c #181187",
"7$	c #191382",
"8$	c #181281",
"9$	c #18117D",
"0$	c #171179",
"a$	c #161077",
"b$	c #161175",
"c$	c #151072",
"d$	c #140E6E",
"e$	c #5561BE",
"f$	c #32358E",
"g$	c #16107A",
"h$	c #18127E",
"i$	c #191282",
"j$	c #150D80",
"k$	c #4046A2",
"l$	c #1D2232",
"m$	c #2C2B9A",
"n$	c #18127C",
"o$	c #17117A",
"p$	c #171175",
"q$	c #161073",
"r$	c #150F71",
"s$	c #15106E",
"t$	c #150F6D",
"u$	c #120B67",
"v$	c #525DB8",
"w$	c #3E4594",
"x$	c #140D75",
"y$	c #17127B",
"z$	c #17117D",
"A$	c #150F7C",
"B$	c #3D429F",
"C$	c #3B457C",
"D$	c #1D1787",
"E$	c #191281",
"F$	c #181280",
"G$	c #18127F",
"H$	c #171176",
"I$	c #161074",
"J$	c #150F6F",
"K$	c #140F6E",
"L$	c #150F6B",
"M$	c #130E69",
"N$	c #140F66",
"O$	c #130D64",
"P$	c #5865C0",
"Q$	c #424D89",
"R$	c #130C71",
"S$	c #171076",
"T$	c #373A9E",
"U$	c #414A9A",
"V$	c #150F79",
"W$	c #17127C",
"X$	c #161078",
"Y$	c #151071",
"Z$	c #150F70",
"`$	c #140F6C",
" %	c #140E6A",
".%	c #130F68",
"+%	c #140F65",
"@%	c #17136A",
"#%	c #6778D4",
"$%	c #3A466E",
"%%	c #171174",
"&%	c #161174",
"*%	c #1E1A80",
"=%	c #090C10",
"-%	c #3E44A8",
";%	c #161076",
">%	c #15106F",
",%	c #15106D",
"'%	c #14106C",
")%	c #1A176E",
"!%	c #1F2639",
"~%	c #252484",
"{%	c #14106E",
"]%	c #16106F",
"^%	c #3C457D",
"/%	c #1F2540",
"(%	c #171276",
"_%	c #161173",
":%	c #161072",
"<%	c #161071",
"[%	c #160F70",
"}%	c #150F6C",
"|%	c #140F6A",
"1%	c #140E68",
"2%	c #130F67",
"3%	c #130E65",
"4%	c #1B186F",
"5%	c #313492",
"6%	c #505CB1",
"7%	c #455092",
"8%	c #15106C",
"9%	c #140F6B",
"0%	c #140E69",
"a%	c #130E68",
"b%	c #130F66",
"c%	c #2F318A",
"d%	c #34378D",
"e%	c #282982",
"f%	c #3E439F",
"g%	c #130D68",
"h%	c #120D64",
"i%	c #4A54AE",
"j%	c #333888",
"k%	c #1A176F",
"l%	c #20263C",
"m%	c #1C1971",
"n%	c #0F0960",
"o%	c #505CB7",
"p%	c #30357D",
"q%	c #424A9F",
"r%	c #49549D",
"s%	c #130D65",
"t%	c #120C64",
"u%	c #2A2C85",
"v%	c #5B69C4",
"w%	c #4D589C",
"x%	c #2F3289",
"y%	c #201E75",
"z%	c #4F5CA2",
"A%	c #424E83",
"B%	c #140E66",
"C%	c #151168",
"D%	c #4F59AB",
"E%	c #3A4191",
"F%	c #363A94",
"G%	c #282E4F",
"H%	c #2F385D",
"I%	c #16126B",
"J%	c #0E085F",
"K%	c #454D9A",
"L%	c #0A0C13",
"M%	c #444D9F",
"N%	c #1B1770",
"O%	c #363E74",
"P%	c #212645",
"Q%	c #120D65",
"R%	c #282880",
"S%	c #37426C",
"T%	c #4851A9",
"U%	c #120C63",
"V%	c #2C2E85",
"W%	c #2E3756",
"X%	c #293056",
"Y%	c #33368F",
"Z%	c #1E2538",
"`%	c #08090F",
" &	c #26267D",
".&	c #3B409B",
"+&	c #5260AA",
"@&	c #3C419D",
"#&	c #10121F",
"  . + @ #                                                                                           ",
"  $ % & * = - ; >                                                                                   ",
"  , ' ) ! ~ { ] ^ / ( _                                                                             ",
"  : < [ } | 1 2 3 4 5 6 7 8 9                                                                       ",
"  0 a b c d e f g h i j k l m n o p                                                                 ",
"    q r s t u v w x y z A B C D E F G H                                                             ",
"    I J K L M N O P Q R S T U V W X Y Z `  ...                                                      ",
"      +.@.#.$.%.&.*.=.-.;.>.,.'.).!.~.{.].^./.(._.                                                  ",
"      0 :.<.[.}.|.1.2.3.4.5.6.7.8.9.0.a.b.c.d.e.f.g.h.                                              ",
"      0 i.j.k.l.m.n.o.p.q.r.s.t.u.v.w.x.y.z.A.B.C.D.E.F.G.                                          ",
"        H.I.J.K.L.M.N.O.-.4.P.Q.R.S.v.T.U.V.W.X.Y.Z.`. +.+++                                        ",
"        0 @+#+$+%+&+*+o.=+-+;+>+,+R.'+)+!+~+{+{+{+]+^+/+(+_+:+<+                                    ",
"          [+}+|+1+2+3+4+5+3.6+7+>+,+8+9+0+.+)+a+)+0+u.R.b+c+d+6 e+f+                                ",
"          g+h+i+j+k+&+l+m+O.3.6+;+5.n+6.8+7.7.o+7.R.6.p+>+q+r+-.s+t+u+                              ",
"            v+w+x+y+z+A+*+B+O.C+6+4.q+D+n+p+,+,+p+n+E+F+G+H+-.I+o.J+K+L+M+                          ",
"            N+O+P+Q+R+2+S+*+B+5+p.T+U+4.V+7 F+F+7 W+G+U+X+=+Y+o.Z+`+ @k+.@+@                        ",
"            @@#@$@%@&@R+2+S+*@N.o.=@C+-@r+6+6+U+6+r+-.C+I+;@B+*@`+>@,@y+'@)@!@~@                    ",
"              {@]@)@%@^@R+/@&+n.J+(@_@:@Y+=+3.3.=+=+:@5+<@m+[@S+2+,@y+}@|@1@2@3@4@                  ",
"              5@6@7@)@%@8@9@0@a@3+l+J+m+B+_@_@_@_@o.B+4+Z+b@a@ @R+y+}@|@c@d@e@f@g@h@                ",
"              i@j@d@k@)@%@Q+l@,@/@m@S+l+l+Z+Z+Z+Z+l+l+n@&+>@k+l@o@'@|@c@p@q@r@s@t@u@v@              ",
"              0 w@x@y@]@$@z@A@^@y+,@/@ @m@A+A+S+A+a@ @ @B@l@C@}@%@D@k@E@F@G@H@I@J@                  ",
"                K@L@x@M@N@1@|@%@A@^@y+l@R+B@B@B@B@O@O@y+^@A@P@Q@D@R@S@T@U@0                         ",
"                V@W@X@3@q@p@Y@c@)@%@P@A@Q+^@^@^@^@Q+Z@`@%@|@D@ #.#+#@#0                             ",
"                ##$#%#&#*#x@y@d@ #=#D@)@-#z@z@z@z@-#)@D@1@7@;#>#,#0                                 ",
"                  '#)#!#~#L@{#]#M@^#p@Y@k@/#/#/#/#k@Y@Y@d@^#]#(#_#                                  ",
"                  :#<#[#}#|#1#L@2#3#e@q@4#^#^#^#^#5#q@]#3@{#L@6#7#8#9#                              ",
"                  0#a#b#c#d#e#|#f#&#L@L@*#{#{#{#3#*#f@L@6#g#W@e#d#c#h#i#                            ",
"                  0 j#k#l#m#n#o#p#}#q#W@r#~#~#~#~#s#W@|#e#}#)#c#m#t#u#v#w#                          ",
"                  0 x#y#z#k#l#t#A#n#o#o#)#p#p#p#p#)#)#o#c#A#b#t#u#B#C#D#E#F#                        ",
"                    G#H#I#C#J#B#u#l#t#b#K#K#A#A#L#K#b#t#l#u#k#M#C#I#N#O#P#Q#R#S#                    ",
"                    T#U#O#N#V#W#X#z#Y#k#Z#`#k#`#`#Z#Y# $.$z#W#D#N#+$@$#$$$%$&$*$=$                  ",
"                    -$;$Q#>$@$,$'$V#D#D#y#)$!$C#X#X#W#D#V#'$~$@$>${$$$]$^$/$($_$:$<$                ",
"                    0 [$}$]$$$|$>$1$@$2$3$4$0 5$6$~$,$O#@$>${$|$7$8$^$9$($0$a$b$c$d$e$              ",
"                      f$g$h$^$%$]$i$j$k$    0 l$m${$|$|$$$7$]$}$h$9$n$o$_$p$q$r$s$t$u$v$            ",
"                      w$x$o$y$z$&$A$B$        0 C$D$E$F$G$&$9$y$o$0$a$H$I$c$J$K$L$M$N$O$P$          ",
"                      Q$R$S$a$0$0$T$            0 U$V$W$($o$0$X$a$p$q$Y$Z$s$`$ %.%+%+%N$@%#%        ",
"                      $%%%c$q$&%*%                =%-%a$;%H$b$I$c$r$>%,%'% %.%N$+%N$N$N$N$)%        ",
"                      !%~%{%]%r$^%                0 /%(%_%:%<%[%K$s$}%|%1%2%+%+%N$N$N$N$N$3%4%      ",
"                        5%|% %6%                    0 7%>%s$8%}%9%0%a%b%N$+%N$N$N$N$N$N$N$N$3%c%    ",
"                        d%3%e%                        I f%g%0%.%2%N$+%+%N$N$N$N$N$N$N$N$N$N$N$h%i%  ",
"                        j%k%                          0 l%m%N$+%+%N$N$N$N$N$N$N$N$N$N$N$N$N$N$N$n%o%",
"                        p%q%                            0 r%s%N$N$N$N$N$N$N$N$N$N$N$N$N$N$N$3%t%u%v%",
"                        w%                                0 x%3%N$N$N$N$N$N$N$N$N$N$N$N$3%3%y%z%0   ",
"                                                          0 A%B%N$N$N$N$N$N$N$N$N$N$N$3%C%D%0       ",
"                                                            0 E%3%N$N$N$N$N$N$N$N$N$h%F%G%          ",
"                                                              H%I%N$N$N$N$N$N$N$3%J%K%L%            ",
"                                                              0 M%3%N$N$N$N$N$3%N%O%                ",
"                                                                P%Q%3%N$N$N$h%R%S%                  ",
"                                                                0 T%3%N$N$U%V%W%                    ",
"                                                                  X%N$N$O$Y%Z%                      ",
"                                                                  `% &3%.&                          ",
"                                                                  0 +&@&                            ",
"                                                                    #&                              ",
"                                                                                                    "};
