/* XPM */
static char * icon_xpm[] = {
"50 50 437 2",
"  	c None",
". 	c #4EAFFF",
"+ 	c #3FA8FF",
"@ 	c #68BAFE",
"# 	c #57B3FF",
"$ 	c #41A9FF",
"% 	c #D5ECFF",
"& 	c #8DCBFF",
"* 	c #67BAFF",
"= 	c #47ABFE",
"- 	c #D9EEFF",
"; 	c #C7E5FF",
"> 	c #B0DBFF",
", 	c #78C2FF",
"' 	c #4BADFF",
") 	c #D4EBFF",
"! 	c #A3D6FF",
"~ 	c #B1DCFF",
"{ 	c #BBE0FF",
"] 	c #98D0FE",
"^ 	c #56B3FE",
"/ 	c #5FB7FF",
"( 	c #CEE8FF",
"_ 	c #9BD1FF",
": 	c #94CEFF",
"< 	c #ACD9FF",
"[ 	c #64B9FF",
"} 	c #4FAFFF",
"| 	c #57B2FE",
"1 	c #65B9FF",
"2 	c #C4E4FF",
"3 	c #8FCCFF",
"4 	c #88C8FF",
"5 	c #7FC5FF",
"6 	c #77C1FF",
"7 	c #88C9FF",
"8 	c #B6DDFF",
"9 	c #4FAFFE",
"0 	c #5AB4FE",
"a 	c #4CAEFE",
"b 	c #4EAEFE",
"c 	c #58B4FF",
"d 	c #72BFFF",
"e 	c #7EC4FF",
"f 	c #7DC3FF",
"g 	c #9BD2FF",
"h 	c #82C6FF",
"i 	c #7AC3FF",
"j 	c #71BEFF",
"k 	c #69BAFF",
"l 	c #55B2FF",
"m 	c #4CAEFF",
"n 	c #9FD4FF",
"o 	c #9AD1FE",
"p 	c #2B2B2B",
"q 	c #5BB5FF",
"r 	c #51B0FF",
"s 	c #61B7FF",
"t 	c #8ECCFF",
"u 	c #C4E3FF",
"v 	c #E5F3FE",
"w 	c #D8EDFF",
"x 	c #CAE7FF",
"y 	c #BFE2FF",
"z 	c #B8DEFF",
"A 	c #B4DCFF",
"B 	c #98D0FF",
"C 	c #74C0FF",
"D 	c #6BBCFF",
"E 	c #62B7FF",
"F 	c #52B1FF",
"G 	c #42A9FF",
"H 	c #3AA6FF",
"I 	c #79C2FF",
"J 	c #B2DCFF",
"K 	c #2E2E2E",
"L 	c #272727",
"M 	c #202020",
"N 	c #1D1D1D",
"O 	c #141414",
"P 	c #030303",
"Q 	c #000000",
"R 	c #5DB6FF",
"S 	c #7CC3FF",
"T 	c #C3E4FF",
"U 	c #DFF0FF",
"V 	c #C9E6FF",
"W 	c #A4D5FF",
"X 	c #9AD1FF",
"Y 	c #91CDFF",
"Z 	c #75C0FF",
"` 	c #6EBCFF",
" .	c #65BAFF",
"..	c #5AB4FF",
"+.	c #4BAEFF",
"@.	c #40A8FF",
"#.	c #3BA6FF",
"$.	c #54B1FF",
"%.	c #A5D6FF",
"&.	c #85C8FF",
"*.	c #5DA8E7",
"=.	c #5C7891",
"-.	c #434648",
";.	c #0E0D0C",
">.	c #010101",
",.	c #7DC4FF",
"'.	c #C2E3FF",
").	c #D9EEFE",
"!.	c #A9D8FE",
"~.	c #A0D4FF",
"{.	c #97CFFE",
"].	c #8ECBFF",
"^.	c #69BBFF",
"/.	c #5CB5FF",
"(.	c #50B0FF",
"_.	c #44AAFF",
":.	c #3EA7FF",
"<.	c #41A9FE",
"[.	c #83C6FE",
"}.	c #98D2FF",
"|.	c #63B1F2",
"1.	c #386C97",
"2.	c #202C36",
"3.	c #020201",
"4.	c #6CBCFF",
"5.	c #A7D7FF",
"6.	c #D5EBFF",
"7.	c #B5DDFF",
"8.	c #A4D6FF",
"9.	c #93CEFF",
"0.	c #8AC9FF",
"a.	c #81C5FF",
"b.	c #76C1FF",
"c.	c #68BAFF",
"d.	c #45AAFF",
"e.	c #3AA5FF",
"f.	c #6BBBFE",
"g.	c #B2DDFF",
"h.	c #7AC8FF",
"i.	c #4090D2",
"j.	c #0D1D2B",
"k.	c #73BFFF",
"l.	c #B6DEFF",
"m.	c #AEDAFF",
"n.	c #9FD3FF",
"o.	c #97D0FF",
"p.	c #58B3FF",
"q.	c #3EA8FF",
"r.	c #3CA7FF",
"s.	c #65B9FE",
"t.	c #8CD0FF",
"u.	c #65B4F4",
"v.	c #467CAA",
"w.	c #15202A",
"x.	c #45ABFF",
"y.	c #7BC3FF",
"z.	c #CDE8FE",
"A.	c #BDE0FF",
"B.	c #93CDFF",
"C.	c #78C1FF",
"D.	c #5FB6FF",
"E.	c #4AADFF",
"F.	c #56B2FF",
"G.	c #63B9FF",
"H.	c #6EBDFF",
"I.	c #4EAFFE",
"J.	c #97CFFF",
"K.	c #9CD5FF",
"L.	c #67BBFF",
"M.	c #3E7BAF",
"N.	c #33495C",
"O.	c #313335",
"P.	c #131212",
"Q.	c #7BC3FE",
"R.	c #D1EAFE",
"S.	c #A8D7FF",
"T.	c #A1D4FF",
"U.	c #83C7FF",
"V.	c #70BEFE",
"W.	c #9DD3FF",
"X.	c #B7DFFF",
"Y.	c #A2D8FF",
"Z.	c #93D1FF",
"`.	c #8ACDFF",
" +	c #87CDFF",
".+	c #89CAFF",
"++	c #B8DEFE",
"@+	c #83C7FE",
"#+	c #72C2FF",
"$+	c #4394D7",
"%+	c #324C63",
"&+	c #303234",
"*+	c #3B3B3B",
"=+	c #313131",
"-+	c #1F1F1F",
";+	c #080808",
">+	c #303030",
",+	c #CBE7FF",
"'+	c #ACDAFF",
")+	c #83C6FF",
"!+	c #50AFFF",
"~+	c #46ABFF",
"{+	c #7DC4FE",
"]+	c #B5DEFF",
"^+	c #93CFFF",
"/+	c #62B4F8",
"(+	c #4891CE",
"_+	c #40749F",
":+	c #416786",
"<+	c #425F78",
"[+	c #3A566D",
"}+	c #3590DC",
"|+	c #B0DCFF",
"1+	c #4DAEFF",
"2+	c #67BAFE",
"3+	c #B3DCFE",
"4+	c #8ACAFF",
"5+	c #45A4F3",
"6+	c #366084",
"7+	c #2A2B2C",
"8+	c #1D1C1C",
"9+	c #292929",
"0+	c #393939",
"a+	c #414141",
"b+	c #363636",
"c+	c #131313",
"d+	c #53B1FF",
"e+	c #B4DDFF",
"f+	c #B1DBFF",
"g+	c #3CA6FE",
"h+	c #61B8FF",
"i+	c #A7D7FE",
"j+	c #8DC9FB",
"k+	c #3A84C1",
"l+	c #123653",
"m+	c #080909",
"n+	c #262320",
"o+	c #2E2C2A",
"p+	c #2B2928",
"q+	c #232220",
"r+	c #1C1C1B",
"s+	c #2F84CB",
"t+	c #B6DFFF",
"u+	c #47ABFF",
"v+	c #42A9FE",
"w+	c #A3D4FD",
"x+	c #55AEF8",
"y+	c #3473A7",
"z+	c #21272A",
"A+	c #242220",
"B+	c #2D2D2D",
"C+	c #242424",
"D+	c #383838",
"E+	c #3E3E3E",
"F+	c #2F2F2F",
"G+	c #040404",
"H+	c #212121",
"I+	c #45ABFE",
"J+	c #A4D4FC",
"K+	c #5497CE",
"L+	c #0F3250",
"M+	c #070706",
"N+	c #0D0D0D",
"O+	c #191817",
"P+	c #0F1418",
"Q+	c #2E84CB",
"R+	c #A7D8FF",
"S+	c #70B8F2",
"T+	c #2F7BBA",
"U+	c #213748",
"V+	c #231F1C",
"W+	c #2C2C2B",
"X+	c #2C2C2C",
"Y+	c #181818",
"Z+	c #121212",
"`+	c #191919",
" @	c #282828",
".@	c #0F0F0F",
"+@	c #1A1A1A",
"@@	c #A1D3FD",
"#@	c #407DB0",
"$@	c #010E19",
"%@	c #111111",
"&@	c #0E0C0B",
"*@	c #0D171F",
"=@	c #368BD0",
"-@	c #56B2FE",
";@	c #99D3FF",
">@	c #8AC7F9",
",@	c #3B85C1",
"'@	c #163F60",
")@	c #10100F",
"!@	c #221F1D",
"~@	c #0C0C0C",
"{@	c #050505",
"]@	c #070707",
"^@	c #8ECCFE",
"/@	c #52B0FF",
"(@	c #3CA6FF",
"_@	c #9DD2FF",
":@	c #60ADED",
"<@	c #1C2328",
"[@	c #0E0E0E",
"}@	c #080604",
"|@	c #0D1B27",
"1@	c #3E91D4",
"2@	c #95D1FF",
"3@	c #91D1FF",
"4@	c #5296CF",
"5@	c #1C4F79",
"6@	c #101921",
"7@	c #0C0703",
"8@	c #131312",
"9@	c #151515",
"0@	c #171717",
"a@	c #0B0B0B",
"b@	c #75C1FF",
"c@	c #63B8FF",
"d@	c #A5D5FE",
"e@	c #181513",
"f@	c #0A0A0A",
"g@	c #060402",
"h@	c #0E2130",
"i@	c #4496DA",
"j@	c #88D1FF",
"k@	c #60A9E6",
"l@	c #265984",
"m@	c #182B3B",
"n@	c #161210",
"o@	c #100F0D",
"p@	c #090909",
"q@	c #060606",
"r@	c #A5D6FE",
"s@	c #48ACFF",
"t@	c #43AAFF",
"u@	c #ADDAFE",
"v@	c #66B9FF",
"w@	c #1B1B1B",
"x@	c #080503",
"y@	c #132C40",
"z@	c #3991DA",
"A@	c #2B6494",
"B@	c #182D3F",
"C@	c #202223",
"D@	c #1A1817",
"E@	c #050506",
"F@	c #020202",
"G@	c #1E1E1E",
"H@	c #7FC4FF",
"I@	c #86C8FE",
"J@	c #80C6FF",
"K@	c #82C7FE",
"L@	c #060403",
"M@	c #111D27",
"N@	c #1F303D",
"O@	c #2D3135",
"P@	c #21201F",
"Q@	c #101010",
"R@	c #86C8FF",
"S@	c #A0D4FE",
"T@	c #62B8FF",
"U@	c #161616",
"V@	c #2A2A2A",
"W@	c #353535",
"X@	c #222222",
"Y@	c #6ABBFF",
"Z@	c #333333",
"`@	c #323232",
" #	c #232323",
".#	c #63B8FE",
"+#	c #89C9FF",
"@#	c #81C6FF",
"##	c #6DBDFF",
"$#	c #262626",
"%#	c #373737",
"&#	c #252525",
"*#	c #5EB6FF",
"=#	c #84C6FE",
"-#	c #7AC2FE",
";#	c #1C1C1C",
">#	c #53B1FE",
",#	c #5DB5FF",
"'#	c #66BAFE",
")#	c #3C3C3C",
"!#	c #58B3FE",
"~#	c #343434",
"{#	c #55B2FE",
"]#	c #48ABFF",
"^#	c #4FB0FF",
"/#	c #54B1FE",
"(#	c #49ACFF",
"_#	c #464646",
":#	c #434343",
"<#	c #48ACFE",
"[#	c #46AAFF",
"}#	c #3A3A3A",
"|#	c #505050",
"1#	c #4A4A4A",
"2#	c #4E4E4E",
"3#	c #4DAFFF",
"4#	c #3F3F3F",
"5#	c #454545",
"6#	c #575757",
"7#	c #5B5B5B",
"8#	c #5C5C5C",
"9#	c #565656",
"0#	c #686868",
"a#	c #676767",
"b#	c #5A5A5A",
"c#	c #494949",
"d#	c #484848",
"e#	c #404040",
"f#	c #66BAFF",
"g#	c #4F4F4F",
"h#	c #585858",
"i#	c #535353",
"j#	c #555555",
"k#	c #525252",
"l#	c #545454",
"m#	c #646464",
"n#	c #424242",
"o#	c #71BFFF",
"p#	c #87C9FF",
"q#	c #4B4B4B",
"r#	c #4D4D4D",
"s#	c #515151",
"t#	c #8CCBFF",
"u#	c #8CCBFE",
"v#	c #94CFFF",
"w#	c #444444",
"x#	c #595959",
"y#	c #4C4C4C",
"z#	c #A6D6FF",
"A#	c #C4E5FE",
"B#	c #CCE7FE",
"C#	c #D6ECFF",
"D#	c #DCEFFF",
"                                                                                                    ",
"                                              .                                                     ",
"                                              + @ #                                                 ",
"                                              $ % & *                                               ",
"                                              = - ; > , '                                           ",
"                                              ' ) ! ~ { ] ^                                         ",
"                                              / ( _ : : < > [ }                                     ",
"                                            | 1 2 3 4 5 6 7 8 , 9                                   ",
"                                0 a b c d e f g { h i j k l m n o .                             p   ",
"                          q r s t u v w x y z A B C D E F G + H I J 1 l         K L M N O P Q Q Q   ",
"                      q R S T U V 8 W X Y 4 5 Z `  ...+.@.@.$ $ #.$.%.&.*.=.-.;.Q Q Q Q Q Q >.>.Q   ",
"                    ..,.'.).'.J !.~.{.].&.f C ^./.(._.+ @.$ $ $ $ :.<.[.}.|.1.2.3.Q >.>.>.>.>.>.Q   ",
"                m 4.5.6.2 7.< 8._ 9.0.a.b.c...} d.+ @.$ $ $ $ $ $ @.+ e.f.g.h.i.j.>.>.>.>.>.>.>.Q   ",
"              G k.2 x l.m.5.n.o.].S ^.p.+._.q.r.+ @.$ $ $ $ $ $ $ + #.s.o.t.u.v.w.>.>.>.>.>.>.>.Q   ",
"            x.y.z.A.m.!.W B.C.D.E.d.F.G.D H.4.D.x.@.$ $ $ $ $ @.H I.J.K.L.M.N.O.P.Q >.>.>.>.>.>.Q   ",
"            Q.R.J S.T.U.q _.x.V.W.X.Y.Z.`. +.+++$.@.$ $ $ $ :.+ @+J #+$+%+&+*+=+-+;+Q >.>.>.>.>.Q >+",
"          ^.,+'+~.)+!+q.~+{+]+^+/+(+_+:+<+[+}+|+1+@.$ $ @.:.2+3+4+5+6+7+8+9+0+a+b+c+Q >.>.>.>.>.Q 9+",
"        d+e+f+: / g+<.h+i+j+k+l+m+n+o+p+q+r+s+t+u+@.@.v+l X w+x+y+z+A+B+C+C+D+E+F+L G+Q Q >.>.>.Q H+",
"        9.z 4+1+:.I+6 J+K+L+Q Q M+O N+c+O+P+Q+]+_.<.d+e R+S+T+U+V+W+X+Y+;+;+Z+`+p  @.@Q Q >.>.>.Q +@",
"      Z m.3 ' + G 5 @@#@$@Q Q Q ;+O c+%@&@*@=@m.-@Z ;@>@,@'@)@!@B+K Y+~@G+G+{@]@Z+-+M >.Q >.>.>.Q c+",
"      ^@S./@@.(@S _@:@<@Q >.Q >.]@%@[@~@}@|@1@t+2@3@4@5@6@7@8@+@O 9@0@;+P >.>.P a@-+b+a@Q >.>.>.Q N+",
"    b@n.C + r.c@d@1   e@Q >.Q P N+~@f@;+g@h@i@j@k@l@m@n@o@p@q@;+f@p@.@q@>.Q >.{@]@Y+p 0@Q Q >.>.Q ]@",
"    i r@s@q.t@u@v@    w@Q Q Q ;+~@f@p@f@x@y@z@A@B@C@D@N+E@F@F@q@{@]@]@F@Q Q >.F@P a@G@E+p@Q >.>.>.Q ",
"    H@I@#.H J@K@      w@Q Q P ~@.@f@f@;+L@M@N@O@P@Q@p@P F@Q >.P P p@f@P >.Q >.Q ]@O H+*+9@Q >.>.Q G@",
"    R@c@r._.S@T@      w@Q Q G+Q@9@U@0@H+V@W@p 0@q@G+P F@Q Q Q >.{@]@{@P >.Q Q >.G@V@X@N 0@Q Q >.Q  @",
"  ^.4+' #.Y@I         w@Q Q M Z@W@`@W@K N ~@q@P >.P P Q >.Q >.F@G+P P F@Q >.P %@W@ @-+-+c+;+Q Q Q  #",
"  .#+#q.#.@###        w@Q P p@~@;+;+G+F@>.F@>.>.Q F@F@Q >.>.Q >.P Q Q >.>.F@p@$#%#D+&#0@0@~@Q Q Q N ",
"  *#=#e.~+-#^.        w@Q Q >.>.Q >.Q >.>.Q Q Q >.Q Q >.>.>.>.Q Q >.Q Q >.P O W@D+W@p ;#.@a@P Q Q U@",
"  [ i e.>#Y@          w@Q >.>.Q Q Q Q Q Q >.>.>.>.>.>.>.>.>.>.>.>.>.>.Q >.q@G@b+0+=+p w@;+]@G+Q Q Q@",
"  ,#d e.p.'#          w@Q Q Q Q Q >.>.>.>.>.>.>.>.>.>.>.>.>.>.>.>.>.>.Q >.a@B+D+)#Z@F+`+;+G+P >.Q a@",
"  /.^.r.!#/           w@Q Q Q Q Q Q >.>.>.>.>.>.>.>.>.>.>.>.>.>.>.>.Q Q P -+W@~#~#W@X@U@~@F@F@>.Q q@",
"  E R G {#D.          w@Q Q {@a@N+G+Q Q >.>.>.>.>.>.>.>.>.>.>.>.>.Q Q >.9@`@B+p 9+V@0@[@;+P F@>.Q F@",
"    >#]#^#R           N p@O 0@-+ # #Q@F@Q Q Q Q >.>.>.>.>.>.>.Q Q Q F@c+%#)#%#X+$#;#Z+p@G+>.Q >.Q Q@",
"    /#(#E.$.          $#G@C+&#9+M &#X+G@a@G+P >.>.>.>.>.>.>.>.F@q@[@X+_#:#b+~#W@M O N+f@G+>.Q >.Q  #",
"    /@<#[#}           M f@c+c+U@9@G@>+}#9+Y+Z+Z+Y+c+Z+Z+O ;#C+W@a+|#1#2#_#)#Z@=+p X@.@q@P F@Q >.Q G@",
"      3#9 !+          L .@Z+%@c+9@c+U@9+*+4#}#*+*+5#2#6#7#8#9#0#a#b#|#|#1#c#d#e#D+X@0@f@P F@Q >.Q +@",
"      f#1 /.          p a@N+N+p@Z+9@Y+M ~#a+g#h#g#8#i#8#9#j#k#l#m#0#9#g#|#c#5#n#0+$#0@f@G+>.Q >.Q 9@",
"      Q.I o#p#        9+~@;+;+p@.@U@`+N K %#q#9#r#i#s#b#i#r#_#e#4#r#|#2#1#c#q#c#%#9+U@a@q@F@>.Q Q .@",
"        t#u#v#        M G+G+G+f@Z++@`+Y+C+9+=+b+Z@%#w#d#g#q#a+:#i#x#9#i#r#s#y#4#Z@$#Y+f@;+P >.Q Q f@",
"          z#S@        ;#Q F@P {@a@U@ #-++@;# # #L F+K )#w#e#0+4#:#q#y#q#4#D+X+V@ #0@0@N+;+G+F@>.Q ]@",
"          A#]+B#      w@P ]@G+;+p@p@9@-+w@+@`++@M X@V@0+5#0+9+9+ @~#`@>+B+p  #X@U@%@.@p@q@P >.Q Q G+",
"            C#D#      w@Q ]@[@O O M 0@G@C+F+K X+C+X@ @ @9+L $#G@ @C+V@C+X@H+M ;#+@O c+f@P F@Q Q Q P ",
"                        =+X@f@N+ # #X@G@X@p ~#=+~#~# @9+ @$# #X@M C+$#Y+N +@N N U@a@p@q@G+F@>.Q Q -+",
"                                  Z@V@0@Z+U@+@9@$#B+b+B+9+ @L  @$#X@9+C+M G@ #-+`+Z+N+;+G+F@>.>.Q ;#",
"                                            ~#X@ #>+D+F+F+W@D+%#%#W@0+e#~#=+`@F+$# #N 9@%@q@G+q@>.0@",
"                                                      `@~#F+Z@`@9+B+X+V@B+C+H+L V@C+C++@.@;+G+G+Q c+",
"                                                                0+a+`@B+C+G@ #G@w@%@Q@~@q@G+F@F@Q .@",
"                                                                            %#F+X@Q@f@f@F@>.>.>.Q f@",
"                                                                                      U@Q@q@Q Q Q q@",
"                                                                                              `+c+Q@"};
