/* XPM */
static char * icon_xpm[] = {
"27 32 2 1",
" 	c None",
".	c #000000",
"                           ",
"               ...         ",
"               ...         ",
"              ....         ",
"              ....         ",
"              ....         ",
"             .....         ",
"            ......         ",
"           ......          ",
"          .......          ",
"        ........           ",
"        .......            ",
"       ........            ",
"       .................   ",
"       ..................  ",
"      .................... ",
"      ...................  ",
"     ...................   ",
"    ....................   ",
"  .......................  ",
"  .......................  ",
"  .......................  ",
"  ......................   ",
"  .......................  ",
"  .......................  ",
"  ......................   ",
"   ....................    ",
"   .....................   ",
"   .....................   ",
"   ....................    ",
"   ...................     ",
"          .........        "};
