/* XPM */
static char * icon_xpm[] = {
"50 36 133 2",
"  	c None",
". 	c #6A110A",
"+ 	c #80140E",
"@ 	c #7E140E",
"# 	c #6F120B",
"$ 	c #8C1610",
"% 	c #B21B17",
"& 	c #B81C18",
"* 	c #981712",
"= 	c #74120B",
"- 	c #82140E",
"; 	c #89150F",
"> 	c #8D1610",
", 	c #8A150F",
"' 	c #83140E",
") 	c #7B130D",
"! 	c #6C110A",
"~ 	c #70120B",
"{ 	c #8E1610",
"] 	c #B61C18",
"^ 	c #B91C18",
"/ 	c #7D140D",
"( 	c #A41914",
"_ 	c #BA1C18",
": 	c #B71C18",
"< 	c #B51C18",
"[ 	c #9D1813",
"} 	c #84140E",
"| 	c #73120B",
"1 	c #71120B",
"2 	c #B51B17",
"3 	c #A61915",
"4 	c #6F110A",
"5 	c #9B1813",
"6 	c #B51C17",
"7 	c #A81A15",
"8 	c #8A1510",
"9 	c #7A130D",
"0 	c #6B110A",
"a 	c #75120C",
"b 	c #911611",
"c 	c #B61C17",
"d 	c #971712",
"e 	c #80140D",
"f 	c #76130C",
"g 	c #6D110A",
"h 	c #7D130D",
"i 	c #A21914",
"j 	c #B61B17",
"k 	c #B21C17",
"l 	c #9A1813",
"m 	c #86150F",
"n 	c #7C130D",
"o 	c #AF1B17",
"p 	c #77130C",
"q 	c #84150F",
"r 	c #941712",
"s 	c #8F1611",
"t 	c #85140E",
"u 	c #691109",
"v 	c #74120C",
"w 	c #81140E",
"x 	c #7F140D",
"y 	c #72120B",
"z 	c #B61B18",
"A 	c #9E1913",
"B 	c #88150F",
"C 	c #8F1610",
"D 	c #87150F",
"E 	c #A11814",
"F 	c #82150E",
"G 	c #AA1A15",
"H 	c #76110A",
"I 	c #891C17",
"J 	c #6C1009",
"K 	c #7E130D",
"L 	c #A41915",
"M 	c #73120C",
"N 	c #C03533",
"O 	c #DD4242",
"P 	c #C23634",
"Q 	c #79130C",
"R 	c #B11B17",
"S 	c #75110B",
"T 	c #BF3533",
"U 	c #E04343",
"V 	c #E14444",
"W 	c #E24444",
"X 	c #992420",
"Y 	c #8C150F",
"Z 	c #9D2621",
"` 	c #DE4242",
" .	c #6B1009",
"..	c #6A1109",
"+.	c #77120B",
"@.	c #CA3A39",
"#.	c #E34545",
"$.	c #98241F",
"%.	c #B31B17",
"&.	c #B01B17",
"*.	c #7F1711",
"=.	c #DC4242",
"-.	c #B7322F",
";.	c #AB1A16",
">.	c #831A14",
",.	c #B8312F",
"'.	c #6D1109",
").	c #A11914",
"!.	c #7C150F",
"~.	c #DF4343",
"{.	c #E64646",
"].	c #96221E",
"^.	c #961712",
"/.	c #7D1610",
"(.	c #DB4141",
"_.	c #E34445",
":.	c #E54646",
"<.	c #A82B27",
"[.	c #77150E",
"}.	c #8B1610",
"|.	c #A51915",
"1.	c #821913",
"2.	c #D63F3F",
"3.	c #D43E3E",
"4.	c #C43735",
"5.	c #A72A27",
"6.	c #8A1D18",
"7.	c #78130C",
"8.	c #A71A15",
"9.	c #AD1A16",
"0.	c #84150E",
"a.	c #941711",
"b.	c #691009",
"                                                                                              . + @ ",
"                                                                                          # $ % & * ",
"                  = - ; > , ' ) !                                                     ~ { ] ] ] ^ / ",
"              / ( _ : ] < ] : & : [ } |                                           1 { : ] ] ] 2 3   ",
"          4 5 & 2 ] ] ] ] ] ] ] ] 6 ] _ 7 8 9 0                               a b & ] ] ] ] ] & )   ",
"        4 7 c ] ] ] ] ] ] ] ] ] ] ] ] ] ] ] & 6 d e f                   g h [ _ ] ] ] ] ] ] ] d     ",
"      ! i j ] ] ] ] ] ] ] ] ] ] ] ] ] ] ] ] ] ] 6 ] ^ k l m / ) 9 n - * ] : 2 ] ] ] ] ] ] 2 o !     ",
"      $ : ] ] ] ] ] ] ] ] ] ] ] ] ] ] ] ] ] ] ] ] ] ] ] ] j : : & : ] ] ] ] ] ] ] ] ] ] 2 ] p       ",
"    1 : ] ] ] ] ] ] ] ] ] ] ] ] ] ] ] ] ] ] ] ] ] ] ] ] ] ] ] ] ] ] ] ] ] ] ] ] ] ] ] 6 : q         ",
"    r ] ] ] ] ] ] ] ] ] ] ] ] ] ] ] ] ] ] ] ] ] ] ] ] ] ] ] ] ] ] ] ] ] ] ] ] ] ] ] < : s           ",
"  ! ] ] ] ] ] ] ] ] ] ] ] ] ] ] ] ] ] ] ] ] ] ] ] ] ] ] ] ] ] ] ] ] ] ] ] ] ] ] ] ] ] d             ",
"  t : ] ] ] ] ] ] ] ] ] ] ] ] ] ] ] ] ] ] ] ] ] ] ] ] ] ] ] ] ] ] ] ] ] ] ] ] ] < ] 5 0             ",
"  [ 2 ] ] ] ] ] ] ] ] ] ] ] ] ] ] ] ] ] ] ] ] ] ] ] ] ] ] ] ] ] ] ] ] ] ] ] ] < ] 5 0               ",
"u % ] ] ] ] ] ] ] ] ] ] ] ] ] ] ] ] ] ] ] ] ] ] ] ] ] ] ] ] ] ] ] ] ] ] ] ] 2 ] d                   ",
"v ^ ] ] ] ] ] ] ] ] ] ] ] ] ] ] ] ] ] ] ] ] ] ] ] ] ] ] ] ] ] ] ] ] ] ] ] 2 ] {                     ",
"w & ] ] ] ] ] ] ] ] ] ] ] ] ] ] ] ] ] ] ] ] ] ] ] ] ] ] ] ] ] ] ] ] ] ] ] : x                       ",
"m : ] ] ] ] ] ] ] ] ] ] ] ] ] ] ] ] ] ] ] ] ] ] ] ] ] ] ] ] ] ] ] ] 6 ] % y                         ",
"; : ] ] ] ] ] ] ] ] ] ] ] ] ] ] ] ] ] ] ] ] ] ] ] ] ] ] ] ] ] ] ] ] z A g                           ",
"; : ] ] ] ] ] ] ] ] ] ] ] ] ] ] ] ] ] ] ] ] ] ] ] ] ] ] ] ] ] ] 2 2 9                               ",
"B : ] ] ] ] ] ] ] ] ] ] ] ] ] ] ] ] ] ] ] ] ] ] ] ] ] ] ] ] 2 : C 4                                 ",
"D : ] ] ] ] ] ] ] ] ] ] ] ] ] ] ] ] ] ] ] ] ] ] ] ] ] < ] & { ~                                     ",
"t : ] ] ] ] ] ] ] ] ] ] ] ] ] ] ] ] ] ] ] ] ] ] : k E { = 1                                         ",
"F & ] ] ] ] ] ] ] ] ] ] ] ] ] ] ] ] ] ] 2 : G H I J                                                 ",
"K & ] ] ] ] ] ] ] ] ] ] ] ] ] ] ] ] < : L M N O P                                                   ",
"Q ^ ] ] ] ] ] ] ] ] ] ] ] ] ] ] ] ] R S T U V W X                                                   ",
"y ^ ] ] ] ] ] ] ] ] ] ] ] ] ] 6 & Y Z ` V U V U  .                                                  ",
".._ ] ] ] ] ] ] ] ] ] ] ] ] 2 ] +.@.W U V V #.$.                                                    ",
"u %.] ] ] ] ] ] ] ] ] ] ] 2 &.*.=.V V V V V -.                                                      ",
"  ;.] ] ] ] ] ] ] ] ] ] 2 % >.U U V V V W ,.'.                                                      ",
"  ).] ] ] ] ] ] ] ] ] 2 c !.~.U V V U {.].                                                          ",
"  ^.< ] ] ] ] ] ] ] 2 % /.(.U U _.:.<.[.                                                            ",
"  }.] ] ] ] ] ] ] : |.1.2.3.4.5.6.~                                                                 ",
"  + & ] ] ] ] 2 ^ $ !                                                                               ",
"  4 ^ ] ] 2 : 7 7.                                                                                  ",
"    8.2 & 9.0.                                                                                      ",
"    K a.e b.                                                                                        "};
