/* XPM */
static char * icon_mitk_xpm[] = {
"48 48 179 2",
"  	c #000000",
". 	c #5B5D60",
"+ 	c #5A5B5C",
"@ 	c #DDE3EA",
"# 	c #FCFCFC",
"$ 	c #F1F2F3",
"% 	c #5A5F63",
"& 	c #4E4F4F",
"* 	c #FEFEFE",
"= 	c #3B3A39",
"- 	c #4B4B4B",
"; 	c #E6E8EA",
"> 	c #575F68",
", 	c #B8BABD",
"' 	c #F9F9F9",
") 	c #393938",
"! 	c #F9F8F6",
"~ 	c #ECECEC",
"{ 	c #3C3C3B",
"] 	c #565656",
"^ 	c #FEFEF9",
"/ 	c #7999BB",
"( 	c #2E659F",
"_ 	c #396EA5",
": 	c #396DA4",
"< 	c #4172A6",
"[ 	c #4575A7",
"} 	c #547FAD",
"| 	c #507CAB",
"1 	c #5882AF",
"2 	c #4A78A9",
"3 	c #5F83AA",
"4 	c #5C83AD",
"5 	c #3D6FA5",
"6 	c #3569A1",
"7 	c #396EA6",
"8 	c #1C5693",
"9 	c #26609D",
"0 	c #3368A1",
"a 	c #356AA3",
"b 	c #81A1C3",
"c 	c #356AA2",
"d 	c #2C639E",
"e 	c #2C649F",
"f 	c #CBD2DA",
"g 	c #9DB5CF",
"h 	c #255E9B",
"i 	c #A2B9D2",
"j 	c #DADADA",
"k 	c #D8D9D9",
"l 	c #DADBDC",
"m 	c #28619E",
"n 	c #396DA5",
"o 	c #356BA4",
"p 	c #1C5795",
"q 	c #3B6EA5",
"r 	c #89A7C7",
"s 	c #A6BCD3",
"t 	c #939496",
"u 	c #376DA6",
"v 	c #333130",
"w 	c #31302F",
"x 	c #302F2F",
"y 	c #3E5C7C",
"z 	c #EDEDED",
"A 	c #BCBCBC",
"B 	c #2B5888",
"C 	c #C6CED7",
"D 	c #FAF8F7",
"E 	c #F0F1F2",
"F 	c #F3F4F3",
"G 	c #225C99",
"H 	c #8DAAC9",
"I 	c #3469A1",
"J 	c #97B1CC",
"K 	c #85A4C5",
"L 	c #205A98",
"M 	c #F6F5F5",
"N 	c #3167A0",
"O 	c #7C9DBF",
"P 	c #DBDFE4",
"Q 	c #7795B6",
"R 	c #2F66A0",
"S 	c #245D9A",
"T 	c #2A639E",
"U 	c #93AECA",
"V 	c #F7F6F5",
"W 	c #AFC2D5",
"X 	c #1D5896",
"Y 	c #1E5997",
"Z 	c #22578F",
"` 	c #29629E",
" .	c #356CA5",
"..	c #265F9C",
"+.	c #27619E",
"@.	c #ABBFD5",
"#.	c #A9BED4",
"$.	c #FBFBFB",
"%.	c #E4E7EB",
"&.	c #EFF1F2",
"*.	c #DFE5EB",
"=.	c #ADC1D6",
"-.	c #BEBFBF",
";.	c #C3C9CF",
">.	c #DCE1E7",
",.	c #C1C3C6",
"'.	c #8096AD",
").	c #474747",
"!.	c #787B7F",
"~.	c #D3D3D4",
"{.	c #3A6EA4",
"].	c #B3BFCC",
"^.	c #235C99",
"/.	c #1D5691",
"(.	c #CED3D7",
"_.	c #494949",
":.	c #505050",
"<.	c #515151",
"[.	c #4C4D4E",
"}.	c #838384",
"|.	c #DADDDF",
"1.	c #CAD1D9",
"2.	c #4B4C4D",
"3.	c #535353",
"4.	c #727981",
"5.	c #EDEEEE",
"6.	c #878889",
"7.	c #24282D",
"8.	c #182432",
"9.	c #6E7A86",
"0.	c #B5BAC0",
"a.	c #403F3F",
"b.	c #30363D",
"c.	c #112133",
"d.	c #101F31",
"e.	c #697C92",
"f.	c #424242",
"g.	c #142334",
"h.	c #7A94B0",
"i.	c #EFF0F1",
"j.	c #07121F",
"k.	c #EBECEC",
"l.	c #464545",
"m.	c #0B192A",
"n.	c #0D1C2D",
"o.	c #495D72",
"p.	c #345B83",
"q.	c #E9EAEB",
"r.	c #FDFDFD",
"s.	c #EEEFF0",
"t.	c #585959",
"u.	c #FEFEFD",
"v.	c #0E1E30",
"w.	c #132234",
"x.	c #091626",
"y.	c #505E6D",
"z.	c #333333",
"A.	c #323436",
"B.	c #02050C",
"C.	c #1D262F",
"D.	c #C5CBD2",
"E.	c #D1D3D5",
"F.	c #979DA3",
"G.	c #8C8E91",
"H.	c #31363B",
"I.	c #050D17",
"J.	c #35373A",
"K.	c #9A9A9B",
"L.	c #818182",
"M.	c #454544",
"N.	c #F8F7F5",
"O.	c #D5D6D7",
"P.	c #030810",
"Q.	c #000001",
"R.	c #484848",
"S.	c #FAFAFA",
"T.	c #4A4A4A",
"U.	c #545455",
"V.	c #9EA0A0",
"                                                                                                ",
"                                                                                                ",
"                                                                                                ",
"  . + @ # # # # # # # # # # # # # # # # # # # # # # # # # # # # # # # # # # # # # # # # $ % &   ",
"  * = - * * * * * * * * * * * * * * * * * * * * * * * * * * * * * * * * * * * * * * * ; > % ,   ",
"  * ' % ) ! * * * * * * * * * * * * * * * * * * * * * * * * * * * * * * * * * * * * ~ { ] * ^   ",
"  * * / ( _ _ : < [ [ } | 1 2 @ * * * * * * * * * * * * * * * * * * * ' 1 3 1 4 | } 5 6 < < 7   ",
"  * * 3 8 9 0 _ _ _ _ _ _ _ a [ * * * * * * * * * * * * * * * * * * * b ( _ _ _ _ _ _ _ c d e   ",
"  * * ' f g | h 7 _ _ _ _ _ _ e i j k k k k k k k k k k k k k k k j l m n _ _ _ _ _ o p q r s   ",
"  * * * * * * t e _ _ _ _ _ _ 7 u v w w w w w w w w w w w w w w w x y 7 _ _ _ _ _ o ( @ * * z   ",
"  * * * * * * A B 7 _ _ _ _ _ _ 9 C D E E E E E E E E E E E E E F ! G n _ _ _ _ _ d H * * * z   ",
"  * * * * * * A B 7 _ _ _ _ _ _ I | * * * * * * * * * * * * * * * J d : _ _ _ _ _ e K * * * z   ",
"  * * * * * * A B 7 0 n _ _ _ _ _ L M * * * * * * * * * * * * * * ( o N : _ _ _ _ ( / * * * z   ",
"  * * * * * * A B a / m n _ _ _ _ ( O * * * * * * * * * * * * * P h 9 s d _ _ _ _ N Q * * * z   ",
"  * * * * * * A B R J / R _ _ _ _ : S * * * * * * * * * * * * * Q ( T * L _ _ _ _ 0 1 * * * z   ",
"  * * * * * * A B e U V p _ _ _ _ _ ( r * * * * * * * * * * * * L S W * X _ _ _ _ I 2 * * * z   ",
"  * * * * * * A B e H * 2 0 _ _ _ _ n Y * * * * * * * * * * * K d S * * p _ _ _ _ a 5 * * * z   ",
"  * * * * * * A Z e H * C L _ _ _ _ _ ` i * * * * * * * * * * S m r * * p _ _ _ _  .N * * * z   ",
"  * * * * * * A Z ` g * * c I _ _ _ _  .( * * * * * * * * * s ` 8 * * * X : _ _ _ : L * * * z   ",
"  * * * * * * A S ` g * * C Y _ _ _ _ _ ..f * * * * * * * * c e 4 * * * `  ._ _ _ _ p * * * z   ",
"  * * * * * * A h m i * * * a c _ _ _ _ I | * * * * * * * @ S X f * * * c o _ _ _ _ p * * * z   ",
"  * * * * * * A +.9 @.* * * W G _ _ _ _ _ S @ * * * * * * 1 e _ * * * * < c _ _ _ _ X * * * z   ",
"  * * * * * * A +.9 #.* * * * G o _ _ _ _ c 2 * * * * * $ G L C * * * * | I _ _ _ _ Y $.* * z   ",
"  * * * * * * A +...W * * * * U 9 _ _ _ _ _ G %.* * * * 4 +.( * * * * * 1 0 _ _ _ _ L &.* * z   ",
"  * * * * * * A +...W * * * * * X : _ _ _ _ 0 3 * * * *.p } =.* # # * * Q N _ _ _ _ G *.* * z   ",
"  * * * * * * -.9 h C * * * * * r m _ _ _ _ _ L # * * Q R > . ;.$ $.# * Q N _ _ _ _ G >.* * z   ",
"  * * * * * * ,.9 h f * * * * * * p : _ _ _ _ e r * * L ` '.).- !.~.F * 3 N : {._ _ S f * * z   ",
"  * * * * * * ].9 S f * * * * * * b d _ _ _ _ : ^.* J d /.(._.:.<.[.}.|.O L I : : {.h 1.* * z   ",
"  * * * * * * ].9 S P * * * * * * ' 8 _ _ _ _ _ 0 b {.R | D % 2.3.3.<.3.4.b [ d  .: 9 C * * z   ",
"  * * * * * * W 9 G P * * * * * * * 1 R _ _ _ _ _ _ _ 8 @ 5.6.).3.3.3.] 7.8.9./ 6 ( h =.* * z   ",
"  * * * * * * W 9 G *.* * * * * * * *.p _ _ _ _ _ _ N 1 * z 0.a.3.3.3.] b.c.d.b.e.Q S J * * 5.  ",
"  * * * * * * W 9 L %.* * * * * * * * | N _ _ _ _ _ G C * E l f.:.3.3.] b.d.g.g.d.b.h.#.$.* 5.  ",
"  * * * * * * #.m L i.* * * * * * * * *.p _ _ _ _  .G * * M %.% 2.3.3.] b.d.g.g.g.d.j.[.j $.k.  ",
"  * * * * * * U d L $ * * * * * * * * * 1 N _ _ _ d b * * ' ; t l.3.3.] b.d.g.g.m.n.> '.k $ ;   ",
"  * * * * * * 3 0 S >.* * * * * * * * * f L _ _ _ p %.* * # k.A { 3.3.] b.d.g.n.o.'.p.y l $ q.  ",
"  * * * * * * S : R / * * * * * * * * * * h  ._ I : * * * r.s.>.& & 3.t.b.c.g.c.g.'.b.B ^ u.~   ",
"  * * * * * / N _ _ ( K * * * * * * * * * b d _ h @.* * * * F ; !.:.:.f.v.w.g.g.v.b.h./.K %.^   ",
"  * @ b 1 a _ _ _ _ _ _ I 3 J * * * * * * * G : 9 * * * * * * M 9.x.d.g.w.c.g.g.g.m.y.3 ^.: 5   ",
"  * J 8 G ..u u +.G G S h ..+.b.v z.z.z.z.w Y +.B v z.z.z.A.z.b.h.j.B.e.e.B.v.d.g.g.j.e.[ Y e   ",
"  * @ W f @ y.C.0.f C C W #.s D.~.E.E.E.E.E.f W ;.~.E.E.E.E.E.-.U j.t t F.G.x H.I.n.2.J.0.b Q   ",
"  * * * * ] A.%.# * r.r.r.r.r.r.r.r.r.r.r.r.r.r.r.r.r.r.r.* # M ~.K.,.0., E.L.M.- I.7.] [.~.|.  ",
"  * * * l.{ >.* * * * * * * * * * * * * * * * * * * * * * * * N.; E.;.~.l E.O.:.& [.P.Q.4.|.~.  ",
"  * * R.= k.* * * * * * * * * * * * * * * * * * * * * * * * * S.$ ; %.k.E k.O.-.{ T.{ % % ,.|.  ",
"  V a.U.i.r.* * * * * * * * * * * * * * * * * * * * * * * * r.r.S.V V ' $.N.q.~.V.U.,.V.f.v D.  ",
"  T.+ * * * * * * * * * * * * * * * * * * * * * * * * * * * * * * * * * * * * M |.O.-.D.V % a.  ",
"                                                                                                ",
"                                                                                                ",
"                                                                                                "};
