/* XPM */
static char * AffineTransform_xpm[] = {
"32 32 55 1",
" 	c None",
".	c #333333",
"+	c #323232",
"@	c #2E2E2E",
"#	c #434343",
"$	c #3E3E3E",
"%	c #343434",
"&	c #424242",
"*	c #727272",
"=	c #545454",
"-	c #313131",
";	c #303030",
">	c #3F3F3F",
",	c #6E6E6E",
"'	c #7E7E7E",
")	c #454545",
"!	c #525252",
"~	c #838383",
"{	c #474747",
"]	c #646464",
"^	c #7F7F7F",
"/	c #464646",
"(	c #5D5D5D",
"_	c #818181",
":	c #808080",
"<	c #606060",
"[	c #767676",
"}	c #2F2F2F",
"|	c #373737",
"1	c #565656",
"2	c #777777",
"3	c #757575",
"4	c #3D3D3D",
"5	c #828282",
"6	c #5B5B5B",
"7	c #6F6F6F",
"8	c #7A7A7A",
"9	c #555555",
"0	c #7B7B7B",
"a	c #505050",
"b	c #747474",
"c	c #2D2D2D",
"d	c #2C2C2C",
"e	c #737373",
"f	c #2B2B2B",
"g	c #535353",
"h	c #7D7D7D",
"i	c #7C7C7C",
"j	c #4B4B4B",
"k	c #3C3C3C",
"l	c #363636",
"m	c #4C4C4C",
"n	c #515151",
"o	c #575757",
"p	c #353535",
"                                ",
"                                ",
"                       .....    ",
"                   ..++....     ",
"                 .+@#$+..       ",
"               .+%&*=-.         ",
"              .;>,')-.          ",
"             .+!~'{+.           ",
"            +@]^^/-             ",
"           .+(_:<+.             ",
"           -/_^[}+              ",
"          .|'^')+               ",
"          +1^^2%.               ",
"         .;3'_=-                ",
"         +4~^5-+                ",
"         -6_^7;                 ",
"         ;*^^<-                 ",
"        .-8^^9+                 ",
"        .%0^^a+                 ",
"        .%0^^a+                 ",
"        .+0'^9+                 ",
"    .....;b^^<-.                ",
"   ...;ccd7^^ef@@-...           ",
"    .+g'h^^''^i2b&+.            ",
"     +-j^^^^^'^8k+.             ",
"      .-g^^^^_,l+               ",
"       ++m^'^<.+                ",
"        .-n'o-.                 ",
"         .+p+.                  ",
"          .+.                   ",
"                                ",
"                                "};
