/* XPM */
static char * C:\dev\niftk\src\Code\Gui\MITK\Plugins\uk_ac_ucl_cmic_igifootpedalhotkey\resources\icon_xpm[] = {
"50 52 2 1",
" 	c None",
".	c #000000",
"                                                  ",
"                                                  ",
"                                                  ",
"                                 ..               ",
"                        ...    ......             ",
"                       .....   .......            ",
"                       ...... ........            ",
"                       ...... .........           ",
"                ....   .....  .........           ",
"               ......   ...   ........            ",
"               ......          .......            ",
"               ......          ......             ",
"        ....   ......            .                ",
"       ......   ....                              ",
"       ......                                     ",
"       ......                                     ",
"       ......       ..........                    ",
"        ....      ..............                  ",
"                .................                 ",
"               ...................                ",
"              .....................               ",
"              .....................               ",
"             .......................              ",
"             .......................              ",
"             .......................              ",
"             ......................               ",
"             ......................               ",
"             ......................               ",
"             ......................               ",
"              .....................               ",
"              .....................               ",
"              .....................               ",
"               ....................               ",
"               ....................               ",
"                ..................                ",
"                ..................                ",
"                 .................                ",
"                 .................                ",
"                 ..................               ",
"                  .................               ",
"                   ................               ",
"                    ................              ",
"                    ................              ",
"                     ...............              ",
"                     ...............              ",
"                      ..............              ",
"                       .............              ",
"                       ............               ",
"                        ..........                ",
"                          ......                  ",
"                                                  ",
"                                                  "};
