/* XPM */
static char * icon_ion_xpm[] = {
"32 37 61 1",
" 	c None",
".	c #EADDE9",
"+	c #FEFEFE",
"@	c #D6BDC6",
"#	c #AD394A",
"$	c #DE7B94",
"%	c #C68473",
"&	c #B2132C",
"*	c #D3032A",
"=	c #D4D3D7",
"-	c #C82943",
";	c #C7B590",
">	c #CE5A6B",
",	c #CEADB5",
"'	c #A15351",
")	c #A69979",
"!	c #696655",
"~	c #A9B7CA",
"{	c #708EAD",
"]	c #0A2397",
"^	c #672A4A",
"/	c #D6CEA5",
"(	c #001791",
"_	c #364FA9",
":	c #B9D0D6",
"<	c #0121AD",
"[	c #B4B48F",
"}	c #F5F4B8",
"|	c #2139AD",
"1	c #273791",
"2	c #FFFEC6",
"3	c #DCDCE7",
"4	c #84846B",
"5	c #DAEBEB",
"6	c #636B8C",
"7	c #E8DEAD",
"8	c #635A6B",
"9	c #2B376C",
"0	c #C7C79C",
"a	c #869CB6",
"b	c #DEE7AD",
"c	c #0018AF",
"d	c #061677",
"e	c #6B424A",
"f	c #737366",
"g	c #4F5463",
"h	c #344B71",
"i	c #F3CC51",
"j	c #909191",
"k	c #CCE8DC",
"l	c #429C8C",
"m	c #B2B7AA",
"n	c #182163",
"o	c #DE849C",
"p	c #F39CB1",
"q	c #C65A29",
"r	c #F7B5BD",
"s	c #5A5242",
"t	c #212118",
"u	c #080808",
"v	c #2E2E26",
"                                ",
"                                ",
"                                ",
"                                ",
"                                ",
"    ]](]](((((((((((((](]((3    ",
"    <|[}}0||<<<<<<<<_j}}7|<3    ",
"    |)}22}){<<<<<<<a[b22}[|3    ",
"    |)}22}){<<<<<<<a[b222[<.    ",
"    <)}22}){<<<<<<<a[b222[|3    ",
"    <)[t);){<<+ +|<a;[v)[[|3    ",
"    |4/[0[!{<: lpr|a);0[0f|3    ",
"    <<<<<<<<:{{~&-.<<<<<<<<3    ",
"    1<<<<<<<.{5al+ <<<<<<<1.    ",
"    <<9]<<<<~iil{l=<<<<<9<<3    ",
"    <<(*&]c<<+b:{ <<<]&*9c<3    ",
"    <<(**1]h<<~3:<<h<(**9<<3    ",
"    <<(**1<<^&]<]&&<<(**9<<3    ",
"    <<(**1<<^*&9#*&<<(**9<<3    ",
"    <<(**1<<^**2**&<<(**9<<3    ",
"    <<(**1<<fbb22-&<<(**9<<.    ",
"    <<(**1<c^&'2&b&<<(**9<<.    ",
"    <<(**1<<e**20#&<<(**9<<3    ",
"    <<(**1<<^/02**&<<(**9<<3    ",
"    <<(**1<<8}&2**&<<(**9<<.    ",
"    <<(**1<<^%222b#<<(**9<<3    ",
"    <<(**1<<^**2*)0<<(**9<<.    ",
"    <<(**1<<^**2#)'<<]**9<<.    ",
"    <<(**1<<^*%2b0&<<(**9<<.    ",
"    _<(**1<<^#72**&<<(**9<]     ",
"     ](**1<<^#}0**&<<(**9<+     ",
"      6**1<<^*#72*&<<(**8       ",
"       3*1<<^**2'#&<<(*@        ",
"         :<<^*'}&*&<|~          ",
"          + '**)'&'             ",
"             +%*&+              ",
"               .                "};
