/* XPM */
static char * icon_xpm[] = {
"32 23 140 2",
"  	c None",
". 	c #E5E5E5",
"+ 	c #E6E6E6",
"@ 	c #E4E4E4",
"# 	c #E7E7E7",
"$ 	c #EEEEEE",
"% 	c #F1F1F1",
"& 	c #F3F3F3",
"* 	c #F5F5F5",
"= 	c #F7F6F6",
"- 	c #F9FFFF",
"; 	c #F8FBFB",
"> 	c #F7F7F7",
", 	c #F2F2F2",
"' 	c #EFEFEF",
") 	c #EDEDED",
"! 	c #EAEAEA",
"~ 	c #D6D6D6",
"{ 	c #F9FAFA",
"] 	c #FEFFFF",
"^ 	c #FFFFFF",
"/ 	c #ED5959",
"( 	c #EB0000",
"_ 	c #F18787",
": 	c #FAFBFB",
"< 	c #F4F4F4",
"[ 	c #E9E9E9",
"} 	c #D9D9D9",
"| 	c #D1D1D1",
"1 	c #FCFCFC",
"2 	c #FDFAFA",
"3 	c #E57474",
"4 	c #E56B6B",
"5 	c #E56C6C",
"6 	c #E75A5A",
"7 	c #FD0000",
"8 	c #FF0000",
"9 	c #F41515",
"0 	c #E56E6E",
"a 	c #E66C6C",
"b 	c #F8DFDF",
"c 	c #F9F9F9",
"d 	c #DCDCDC",
"e 	c #D4D4D4",
"f 	c #D5D5D5",
"g 	c #F17171",
"h 	c #FE0000",
"i 	c #FF6262",
"j 	c #ECECEC",
"k 	c #E0E0E0",
"l 	c #D3D3D3",
"m 	c #D7D7D7",
"n 	c #FDFFFF",
"o 	c #EC7C7C",
"p 	c #FE5656",
"q 	c #E2E2E2",
"r 	c #D2D2D2",
"s 	c #F0F0F0",
"t 	c #FF5F5F",
"u 	c #FF1818",
"v 	c #FF2121",
"w 	c #FFD7D7",
"x 	c #FBFBFB",
"y 	c #B6B6B6",
"z 	c #F6F6F6",
"A 	c #FDFDFD",
"B 	c #FFFEFE",
"C 	c #FFF6F6",
"D 	c #FFF7F7",
"E 	c #F8F8F8",
"F 	c #E8E8E8",
"G 	c #D8D8D8",
"H 	c #ACACAC",
"I 	c #DDDDDD",
"J 	c #BCBCBC",
"K 	c #DADADA",
"L 	c #B8B8B8",
"M 	c #CECECE",
"N 	c #C6C6C6",
"O 	c #BFBFBF",
"P 	c #CACACA",
"Q 	c #C9C9C9",
"R 	c #D0D0D0",
"S 	c #9B9B9B",
"T 	c #999999",
"U 	c #9A9A9A",
"V 	c #9E9E9E",
"W 	c #C5C5C5",
"X 	c #C7C7C7",
"Y 	c #A4A4A4",
"Z 	c #B9B9B9",
"` 	c #979797",
" .	c #A1A1A1",
"..	c #A7A7A7",
"+.	c #AAAAAA",
"@.	c #ABABAB",
"#.	c #A8A8A8",
"$.	c #A5A5A5",
"%.	c #989898",
"&.	c #878787",
"*.	c #CCCCCC",
"=.	c #B0B0B0",
"-.	c #B2B2B2",
";.	c #B1B1B1",
">.	c #AFAFAF",
",.	c #AEAEAE",
"'.	c #A9A9A9",
").	c #A0A0A0",
"!.	c #9C9C9C",
"~.	c #C8C8C8",
"{.	c #A6A6A6",
"].	c #969696",
"^.	c #8E8E8E",
"/.	c #DBDBDB",
"(.	c #919191",
"_.	c #A3A3A3",
":.	c #9D9D9D",
"<.	c #8F8F8F",
"[.	c #909090",
"}.	c #858585",
"|.	c #CDCDCD",
"1.	c #B3B3B3",
"2.	c #8B8B8B",
"3.	c #939393",
"4.	c #8C8C8C",
"5.	c #828282",
"6.	c #C2C2C2",
"7.	c #E1E1E1",
"8.	c #9F9F9F",
"9.	c #CBCBCB",
"0.	c #B4B4B4",
"a.	c #C3C3C3",
"b.	c #949494",
"c.	c #898989",
"d.	c #EBEBEB",
"e.	c #848484",
"f.	c #959595",
"g.	c #C1C1C1",
"h.	c #C0C0C0",
"i.	c #DEDEDE",
"                  . . . . . + . + + + + + + . . + + . . @       ",
"              . # $ % % & * = - - - ; > * & , % ' ) ! + . ~     ",
"              + % { ] ^ ^ ^ ^ / ( ( _ ^ ^ ] : > < ' [ @ } |     ",
"            + ' 1 2 3 4 4 5 6 7 8 9 0 4 5 a b c & ! . d e f     ",
"          . ) c ^ g 8 8 8 8 8 8 h 8 8 8 8 i ] > j . k l m f     ",
"        @ [ & n o 8 8 8 8 8 8 8 8 8 8 8 p ] c ' . q r m m ~     ",
"        # s > 1 ^ ] ^ ^ t u v w ^ ^ ^ ^ ] x s # @ ~ ~ m ~ y     ",
"      + ) , z c A ^ ^ B C C D B ^ ^ ^ 1 E , F @ G f m } H ~     ",
"    . F ! j ) $ $ $ $ ' % , , , , , s $ j [ . I e m } J G f     ",
"  d k k k k k k k k k k k k k k k k k k k k K r m G L M m l     ",
"  N O O O O O O O O O O O O O O O O O O O O P m G N Q G ~ R $   ",
"  L S T U U U U U U U U U U U U U U U U T V W m M L m ~ X Y r   ",
"  Z ` U  ...+.@.+.#.$. .V S T %.%.%.%.%.%.U W l L K ~ P &.V *.& ",
"  Z %.Y =.-.-.;.;.>.,.H '.Y ).!.T T T T %.S ~.{.m m r ].^.-./.  ",
"  ).(.)...{._.:.].T ;.-.=.<.<.[.[.[.[.[.[.[. .~ m f  .}.'.|.s   ",
"  1.2.3.].(.4.4.4.(.(.(.(.^.4.4.4.4.4.4.4.<.W m f y 5. .W [     ",
"  Z %.V V U T T T :.-.-.=.` T T T T T T T S W m 6.5.T J 7.      ",
"  Z :.S S S S S S S !.!.!.S S S S S S S S 8.N 9.&.[.0.G >       ",
"  ~.a.a.a.a.a.a.a.a.a.a.a.a.a.a.a.a.a.a.a.a.~.b.c.H R s         ",
"d.=.3.(.(.(.(.(.(.(.(.(.(.(.(.(.(.(.(.(.(.(.e.}.Y N F           ",
"j O  .f.b.b.b.b.f.f.f.f.f.b.b.f.f.f.].f.f.f.S ,.~.+             ",
"  q |.g.O h.h.g.g.6.a.a.W W N X ~.P P 9.9.*.r i.'               ",
"    , $ d.d.j ) $ $ ' ' ' s % % %                               "};
