/* XPM */
static char * C:\Workspace\SmartLiver\TMP\icons\pointer_pivot_xpm[] = {
"50 50 502 2",
"  	c #FFFFFF",
". 	c #FFFFFE",
"+ 	c #FFFEFC",
"@ 	c #FFFDFE",
"# 	c #FFFEFF",
"$ 	c #FDFFFD",
"% 	c #F5FCF9",
"& 	c #FDFEFD",
"* 	c #FEFFFF",
"= 	c #FCFFFF",
"- 	c #FDFFFF",
"; 	c #FBF7F4",
"> 	c #EBB7B4",
", 	c #D99587",
"' 	c #D7857B",
") 	c #D58B84",
"! 	c #DFABAA",
"~ 	c #F7E8E4",
"{ 	c #FDFEFF",
"] 	c #FDFDFF",
"^ 	c #E9A5A1",
"/ 	c #D63A2B",
"( 	c #D62F22",
"_ 	c #CC2F1F",
": 	c #C72D1D",
"< 	c #C02E20",
"[ 	c #BA2F21",
"} 	c #B23024",
"| 	c #C17063",
"1 	c #F2E9E6",
"2 	c #FAFFFE",
"3 	c #FAFEFC",
"4 	c #FEF0EF",
"5 	c #E86459",
"6 	c #DF2412",
"7 	c #DF3122",
"8 	c #D8331D",
"9 	c #D82F1D",
"0 	c #D02E1D",
"a 	c #CA2D1C",
"b 	c #BE2C1C",
"c 	c #B82B1C",
"d 	c #AD2416",
"e 	c #B0342C",
"f 	c #E9C4C3",
"g 	c #FCFEFC",
"h 	c #FDFBFA",
"i 	c #FCECEB",
"j 	c #EB6457",
"k 	c #E5301A",
"l 	c #E83424",
"m 	c #EB321F",
"n 	c #EA3222",
"o 	c #E43120",
"p 	c #DD2F20",
"q 	c #D32D1E",
"r 	c #C92C1D",
"s 	c #BF291B",
"t 	c #B4281A",
"u 	c #A82313",
"v 	c #A62A1F",
"w 	c #E5C4C1",
"x 	c #FFFEFE",
"y 	c #FEFCFB",
"z 	c #EF8F84",
"A 	c #E8301A",
"B 	c #F23624",
"C 	c #F23723",
"D 	c #F13625",
"E 	c #ED3523",
"F 	c #E93322",
"G 	c #E43221",
"H 	c #DA2F20",
"I 	c #CF2D1D",
"J 	c #C52A1B",
"K 	c #B7291A",
"L 	c #AD271B",
"M 	c #A41F15",
"N 	c #A63229",
"O 	c #F1E9EA",
"P 	c #FEFEFE",
"Q 	c #F9FDFE",
"R 	c #FAE3DF",
"S 	c #EA3325",
"T 	c #F13421",
"U 	c #F43928",
"V 	c #F53825",
"W 	c #F43825",
"X 	c #F23725",
"Y 	c #E93421",
"Z 	c #E1311F",
"` 	c #D62D1C",
" .	c #C72B19",
"..	c #B92819",
"+.	c #AF261C",
"@.	c #A5241B",
"#.	c #9F1D12",
"$.	c #C0706C",
"%.	c #FBFDFC",
"&.	c #F9FFFF",
"*.	c #EE9689",
"=.	c #EE2815",
"-.	c #F53925",
";.	c #F43726",
">.	c #EB3422",
",.	c #E5311F",
"'.	c #DA2E1D",
").	c #CC2A1A",
"!.	c #BC2718",
"~.	c #B0251A",
"{.	c #A6241A",
"].	c #9F1F18",
"^.	c #9F2B25",
"/.	c #F5EEE4",
"(.	c #FDFFFE",
"_.	c #F6FCFC",
":.	c #ED5141",
"<.	c #F33521",
"[.	c #F33725",
"}.	c #EE3622",
"|.	c #E53220",
"1.	c #DB2D1E",
"2.	c #CF291B",
"3.	c #C0281A",
"4.	c #B2261A",
"5.	c #A82418",
"6.	c #9F2016",
"7.	c #9E241B",
"8.	c #DDB3B3",
"9.	c #FBFDFE",
"0.	c #F7FDF7",
"a.	c #EA3823",
"b.	c #F23521",
"c.	c #F63725",
"d.	c #E53320",
"e.	c #DB2E1E",
"f.	c #CE2B1D",
"g.	c #BF291C",
"h.	c #B2261B",
"i.	c #A72319",
"j.	c #9E2016",
"k.	c #A0231B",
"l.	c #CC9396",
"m.	c #FFFDFF",
"n.	c #F6FAF5",
"o.	c #EE2D26",
"p.	c #E9381F",
"q.	c #F23825",
"r.	c #F43826",
"s.	c #E4311F",
"t.	c #D92E1D",
"u.	c #CD2A1B",
"v.	c #BF281B",
"w.	c #A82319",
"x.	c #A12017",
"y.	c #A02318",
"z.	c #CD8E8D",
"A.	c #FDFEFB",
"B.	c #FCFDF9",
"C.	c #F6FFFE",
"D.	c #E93C2D",
"E.	c #EC3521",
"F.	c #F03625",
"G.	c #F33825",
"H.	c #F43725",
"I.	c #EC3422",
"J.	c #E73320",
"K.	c #E0301D",
"L.	c #D72D1C",
"M.	c #C9291A",
"N.	c #BD2719",
"O.	c #B22619",
"P.	c #A92519",
"Q.	c #A22217",
"R.	c #9B271C",
"S.	c #D39D9B",
"T.	c #FEFEFC",
"U.	c #E7675A",
"V.	c #E72D1A",
"W.	c #EF3425",
"X.	c #F13525",
"Y.	c #EE3423",
"Z.	c #E73220",
"`.	c #E23220",
" +	c #D92E1C",
".+	c #D12A19",
"++	c #C62819",
"@+	c #B9281A",
"#+	c #B02719",
"$+	c #A92518",
"%+	c #A32319",
"&+	c #A32822",
"*+	c #E4CFC8",
"=+	c #FEFEFB",
"-+	c #F8FFFF",
";+	c #F0BBB0",
">+	c #DE1F10",
",+	c #E63320",
"'+	c #EA3424",
")+	c #E93C2B",
"!+	c #E4311E",
"~+	c #E1301E",
"{+	c #DA2E1C",
"]+	c #D12C1A",
"^+	c #C72918",
"/+	c #BE2719",
"(+	c #B4261A",
"_+	c #AD261A",
":+	c #A52418",
"<+	c #A22417",
"[+	c #AE3E39",
"}+	c #FFFFFA",
"|+	c #FDFCFB",
"1+	c #F4F0ED",
"2+	c #E05142",
"3+	c #DB2B1A",
"4+	c #E02E1C",
"5+	c #E02F1D",
"6+	c #E03524",
"7+	c #DB2E1C",
"8+	c #D52C1A",
"9+	c #D02716",
"0+	c #C72919",
"a+	c #BE2718",
"b+	c #B52519",
"c+	c #AD241A",
"d+	c #A52417",
"e+	c #A42218",
"f+	c #94170E",
"g+	c #DDB6B4",
"h+	c #FAFEFD",
"i+	c #ECB6B2",
"j+	c #D72A1D",
"k+	c #D73B29",
"l+	c #D72B1B",
"m+	c #D42B1B",
"n+	c #CF2B19",
"o+	c #C92B18",
"p+	c #CC5347",
"q+	c #BA2316",
"r+	c #B3251A",
"s+	c #A7231B",
"t+	c #A3231B",
"u+	c #9E1912",
"v+	c #B9615F",
"w+	c #FEFFFA",
"x+	c #E4938C",
"y+	c #CB2D1D",
"z+	c #C62518",
"A+	c #C7281B",
"B+	c #C4281B",
"C+	c #B8271A",
"D+	c #B62417",
"E+	c #AD2319",
"F+	c #A62118",
"G+	c #A42119",
"H+	c #9F2117",
"I+	c #991A11",
"J+	c #B35957",
"K+	c #FAF6F6",
"L+	c #FDFEFE",
"M+	c #FCFCFC",
"N+	c #E8BAB4",
"O+	c #C34A3E",
"P+	c #B41609",
"Q+	c #B41F13",
"R+	c #AB2616",
"S+	c #AB2118",
"T+	c #9F1F16",
"U+	c #97241B",
"V+	c #941D13",
"W+	c #951912",
"X+	c #C5827F",
"Y+	c #F1EBEC",
"Z+	c #FAFEFE",
"`+	c #FCF9FD",
" @	c #F3EFEF",
".@	c #E1B1AC",
"+@	c #B95451",
"@@	c #A32221",
"#@	c #8D221A",
"$@	c #7E251E",
"%@	c #812725",
"&@	c #A25A51",
"*@	c #EBDDDA",
"=@	c #FAFAF9",
"-@	c #FCFCFD",
";@	c #FBFFFF",
">@	c #FAFFFF",
",@	c #F5F0EC",
"'@	c #C9A4A3",
")@	c #D9B3B2",
"!@	c #C9BAB7",
"~@	c #FFFFFD",
"{@	c #6A89C0",
"]@	c #5A7BC0",
"^@	c #DEE3ED",
"/@	c #FEFCFD",
"(@	c #FEFEFD",
"_@	c #FAFAFD",
":@	c #C6BCB9",
"<@	c #CBB9B7",
"[@	c #978D89",
"}@	c #FCFFFD",
"|@	c #93A7D8",
"1@	c #1246B6",
"2@	c #1F4CB0",
"3@	c #BBC7DF",
"4@	c #CCCECA",
"5@	c #CDCBC9",
"6@	c #9A9B9A",
"7@	c #EAEBEB",
"8@	c #FAFCF9",
"9@	c #96ACD4",
"0@	c #073FA3",
"a@	c #386ABE",
"b@	c #DDEDFA",
"c@	c #DFDFDE",
"d@	c #CFCDCE",
"e@	c #C4C2C2",
"f@	c #DBDCDA",
"g@	c #FEFDFC",
"h@	c #8092BB",
"i@	c #004CAE",
"j@	c #8CCDF8",
"k@	c #FDFDFD",
"l@	c #FAF9F9",
"m@	c #F4F3F2",
"n@	c #D3E2F2",
"o@	c #CAD9F0",
"p@	c #FCFDFB",
"q@	c #E8ECF2",
"r@	c #035DAE",
"s@	c #40B8FB",
"t@	c #EEF8F9",
"u@	c #F1F2F7",
"v@	c #9FBDE6",
"w@	c #3A8EDD",
"x@	c #4699E6",
"y@	c #DBE7F4",
"z@	c #FFFFFC",
"A@	c #CCE7F5",
"B@	c #2C9EEA",
"C@	c #29ADF8",
"D@	c #DFF3FA",
"E@	c #E0E3F0",
"F@	c #709FDB",
"G@	c #449BE1",
"H@	c #2685D5",
"I@	c #5CB7F3",
"J@	c #D1E0F3",
"K@	c #E2F0F6",
"L@	c #9AD1F2",
"M@	c #52B4F1",
"N@	c #47B4F8",
"O@	c #35B2F9",
"P@	c #C4E9F9",
"Q@	c #B6B9DD",
"R@	c #4B88D7",
"S@	c #449CE0",
"T@	c #227ACD",
"U@	c #2982D3",
"V@	c #5FB9F5",
"W@	c #53AEEB",
"X@	c #55B0F2",
"Y@	c #4CACEF",
"Z@	c #4FB2F2",
"`@	c #56BAF7",
" #	c #3DB6FB",
".#	c #C0E7FD",
"+#	c #F8F7FA",
"@#	c #8E98D4",
"##	c #4994DE",
"$#	c #358BD7",
"%#	c #1668C0",
"&#	c #2D7FCE",
"*#	c #3588D3",
"=#	c #4095DD",
"-#	c #469EE4",
";#	c #46A3E8",
">#	c #50ACEE",
",#	c #59B6F4",
"'#	c #5BBCF9",
")#	c #3CB6FB",
"!#	c #C8EBFB",
"~#	c #E2E1EA",
"{#	c #7690D0",
"]#	c #3F89D7",
"^#	c #1C6CC6",
"/#	c #1463BC",
"(#	c #2675C9",
"_#	c #3180CF",
":#	c #398BD5",
"<#	c #4093DD",
"[#	c #469CE2",
"}#	c #4FA6E8",
"|#	c #56B0EF",
"1#	c #5BB8F4",
"2#	c #59BBF7",
"3#	c #43B8FA",
"4#	c #E8F7FA",
"5#	c #7788C4",
"6#	c #3A83D3",
"7#	c #0A50B1",
"8#	c #105DBA",
"9#	c #1F6BC1",
"0#	c #2976CA",
"a#	c #3280CE",
"b#	c #3B8AD7",
"c#	c #4495DE",
"d#	c #499EE2",
"e#	c #51A7E9",
"f#	c #58B0F1",
"g#	c #5AB7F4",
"h#	c #4DB7F6",
"i#	c #6BC7FA",
"j#	c #F5F9F9",
"k#	c #949CC8",
"l#	c #4085D5",
"m#	c #1D66C2",
"n#	c #115CBA",
"o#	c #2A76CA",
"p#	c #3A8BD6",
"q#	c #4394DD",
"r#	c #4B9DE2",
"s#	c #50A6E8",
"t#	c #54AFEF",
"u#	c #52B4F2",
"v#	c #42B1F3",
"w#	c #B3E1F7",
"x#	c #FDFCFE",
"y#	c #FDFCFC",
"z#	c #9EA3D7",
"A#	c #5997DD",
"B#	c #2679CA",
"C#	c #1766C1",
"D#	c #2373C8",
"E#	c #307FCE",
"F#	c #378AD4",
"G#	c #3F93DB",
"H#	c #449BE2",
"I#	c #48A3E7",
"J#	c #49AAEB",
"K#	c #42ADF1",
"L#	c #79C9F5",
"M#	c #F6FBFC",
"N#	c #BBBEE2",
"O#	c #6CA2E2",
"P#	c #3688D5",
"Q#	c #267BCE",
"R#	c #287ACB",
"S#	c #3386D4",
"T#	c #499FE4",
"U#	c #40A1E8",
"V#	c #44A8EB",
"W#	c #58B3ED",
"X#	c #89CBF2",
"Y#	c #F8FCFC",
"Z#	c #E1E2F0",
"`#	c #89ACDF",
" $	c #3B8ED9",
".$	c #338DDA",
"+$	c #217ACE",
"@$	c #60BAF6",
"#$	c #8FC3E9",
"$$	c #B3D3EA",
"%$	c #D6E9F5",
"&$	c #F6F6F8",
"*$	c #ADC3E3",
"=$	c #4B99DE",
"-$	c #399BDF",
";$	c #5BB5F0",
">$	c #C1D2E5",
",$	c #D8D6D2",
"'$	c #FAF9F7",
")$	c #FDFDFC",
"!$	c #C5D3E9",
"~$	c #5398DC",
"{$	c #55A2E7",
"]$	c #D3DAE4",
"^$	c #C5C5C2",
"/$	c #F9F9F5",
"($	c #FEFFFE",
"_$	c #EFF1F5",
":$	c #D8DCEA",
"<$	c #E3E2DF",
"[$	c #C6C7C6",
"}$	c #F9F9F7",
"|$	c #F0EFEC",
"1$	c #B9B9BB",
"2$	c #D1D2D0",
"3$	c #FAFAF8",
"4$	c #FFFEFD",
"5$	c #FAFAF6",
"6$	c #D4D3D0",
"7$	c #DCDCDA",
"8$	c #FEFEF9",
"9$	c #EAE8E4",
"0$	c #DCDBD8",
"a$	c #FEFDFD",
"b$	c #F6F5F3",
"c$	c #EEECE8",
"                                                  . + +                                             ",
"                                                . . . . .                                           ",
"                                                .                                                   ",
"                                                @ #                                                 ",
"                                              $ % &                                                 ",
"                                              * = -                                                 ",
"                                          ; > , ' ) ! ~   { ]                                       ",
"                                        ^ / ( _ : < [ } | 1 2 3 @                                   ",
"                                    4 5 6 7 8 9 0 a b c d e f g h                                   ",
"                                  i j k l m n o p q r s t u v w = x                                 ",
"                                y z A B C D E F G H I J K L M N O -                                 ",
"        P                     Q R S T U V W X E Y Z `  ...+.@.#.$.  *                               ",
"      P                     %.&.*.=.-.V V V ;.D >.,.'.).!.~.{.].^./.(.                              ",
"    x                     P _.&.:.<.V V V V V [.}.|.1.2.3.4.5.6.7.8.      . .                       ",
"                            9.0.a.b.c.V V V V ;.}.d.e.f.g.h.i.j.k.l.                                ",
"                            m.n.o.p.q.V V V r.D >.s.t.u.v.h.w.x.y.z.                                ",
"                          A.B.C.D.E.F.G.V H.D I.J.K.L.M.N.O.P.Q.R.S.                                ",
"                          * T.&.U.V.I.W.X.Y.>.Z.`. +.+++@+#+$+%+&+*+                                ",
"                            =+-+;+>+,+F '+)+!+~+{+]+^+/+(+_+:+<+[+(.                                ",
"                            }+|+1+2+3+4+5+6+7+8+9+0+a+b+c+d+e+f+g+                                  ",
"                              x h+i+j+k+l+m+n+o+p+q+r+c+s+t+u+v+                                    ",
"                                w+& x+y+z+A+B+C+D+E+F+G+H+I+J+K+L+                                  ",
"                                .   M+N+O+P+Q+R+S+T+U+V+W+X+Y+Z+L+                                  ",
"                                    * `+ @.@+@@@#@$@%@&@*@=@    # x                                 ",
"                                      * -@;@  >@,@'@)@!@  ~@{@]@^@(.                                ",
"                                        x /@(@* _@:@<@[@}@. |@1@2@3@                                ",
"                                                  4@5@6@7@  8@9@0@a@b@                              ",
"                                                P c@d@e@f@    g@h@i@j@k@                            ",
"                                              P   l@m@n@o@p@. x q@r@s@t@*                           ",
"                                                . u@v@w@x@y@  z@A@B@C@D@                            ",
"                                            P   E@F@G@H@I@J@K@L@M@N@O@P@                            ",
"                                            . Q@R@S@T@U@V@W@X@Y@Z@`@ #.#                            ",
"                                      P . +#@###$#%#&#*#=#-#;#>#,#'#)#!#                            ",
"                                        ~#{#]#^#/#(#_#:#<#[#}#|#1#2#3#4#.                           ",
"                                        5#6#7#8#9#0#a#b#c#d#e#f#g#h#i#j#*                           ",
"                                        k#l#m#n#9#o#a#p#q#r#s#t#u#v#w#(.                            ",
"                                      x#y#z#A#B#C#D#E#F#G#H#I#J#K#L#M#                              ",
"                                            N#O#P#Q#R#S#T#U#V#W#X#Y#                                ",
"                                              Z#`# $.$+$@$#$$$%$z@.                                 ",
"                                                &$*$=$-$;$>$,$'$)$                                  ",
"                                                    !$~${$]$^$/$.                                   ",
"                                                  ($~@_$:$<$[$}$                                    ",
"                                                        |$1$2$3$                                    ",
"                                                      4$5$6$7$3$                                    ",
"                                                      . 8$9$0$a$                                    ",
"                                                        4$b$c$P                                     ",
"                                                                                                    ",
"                                                                                                    ",
"                                                                                                    ",
"                                                                                                    "};
