/* XPM */
static char * icon_xpm[] = {
"106 106 37 1",
" 	g #FFFFFF",
".	g #DBDBDB",
"+	g #9E9E9E",
"@	g #9F9F9F",
"#	g #000000",
"$	g #404040",
"%	g #808080",
"&	g #838383",
"*	g #1E1E1E",
"=	g #7C7C7C",
"-	g #666666",
";	g #383838",
">	g #F0F0F0",
",	g #C7C7C7",
"'	g #C8C8C8",
")	g #F7F7F7",
"!	g #CECECE",
"~	g #353535",
"{	g #2C2C2C",
"]	g #868686",
"^	g #3C3C3C",
"/	g #010101",
"(	g #090909",
"_	g #0F0F0F",
":	g #101010",
"<	g #030303",
"[	g #E2E2E2",
"}	g #020202",
"|	g #F1F1F1",
"1	g #C6C6C6",
"2	g #F3F3F3",
"3	g #CBCBCB",
"4	g #BFBFBF",
"5	g #313131",
"6	g #585858",
"7	g #CCCCCC",
"8	g #080808",
"                                                                                                          ",
"                                                                                                          ",
"                                                                                                          ",
"                                                                                                          ",
"                                                                                                          ",
"                                                                                                          ",
"                                                                                                          ",
"                                                                                                          ",
"                                                                                                          ",
"                                                                                                          ",
"                                                                                                          ",
"           .+@@@@@@@@@@@@@@@@@@@@@@@@@@@@@@@@@@@@@@@@@@@@@@@@@@@@@@@@@@@@@@@@@@@@@@@@@@@@@@@@+.           ",
"           +##################################################################################+           ",
"           @##################################################################################@           ",
"           @##################################################################################@           ",
"           @##################################################################################@           ",
"           @##################################################################################@           ",
"           @##################################################################################@           ",
"           @##################################################################################@           ",
"           @##################################################################################@           ",
"           @##################################################################################@           ",
"           @##################################################################################@           ",
"           @##################################################################################@           ",
"           @###########$%%%%%%%%%%&*###########=%%%%%%%%%%%%%%%%%%%%%%-#######################@           ",
"           @###########%           ;###########>                      ,#######################@           ",
"           @###########%           ;###########>                      '#######################@           ",
"           @###########%           ;###########>                      '#######################@           ",
"           @###########%           ;###########>                      '#######################@           ",
"           @###########%           ;###########>                      '#######################@           ",
"           @###########%           ;###########>                      '#######################@           ",
"           @###########%           ;###########>                      '#######################@           ",
"           @###########%           ;###########>                      '#######################@           ",
"           @###########%           ;###########>                      '#######################@           ",
"           @###########%           ;###########>                      '#######################@           ",
"           @###########%           ;###########)                      !#######################@           ",
"           @###########%           ;###########~;;;;;;;;;;;;;;;;;;;;;;{#######################@           ",
"           @###########%           ;##########################################################@           ",
"           @###########%           ;##########################################################@           ",
"           @###########%           ;##########################################################@           ",
"           @###########%           ;##########################################################@           ",
"           @###########%           ;##########################################################@           ",
"           @###########%           ;##########################################################@           ",
"           @###########%           ;##########################################################@           ",
"           @###########%           ;##########################################################@           ",
"           @###########%           ;##########################################################@           ",
"           @###########%           ;##########################################################@           ",
"           @###########]           ^##########/############/##################################@           ",
"           @###########(_::::::::::<###########[>>>>>>>>>>[###################################@           ",
"           @###################################>          >###################################@           ",
"           @###################################>          >###################################@           ",
"           @###################################>          >###################################@           ",
"           @###################################>          >###################################@           ",
"           @###################################>          >###################################@           ",
"           @###################################>          >###################################@           ",
"           @###################################>          >###################################@           ",
"           @###################################>          >###################################@           ",
"           @###################################>          >###################################@           ",
"           @###################################>          >###################################@           ",
"           @###########(_:::::::::::::::::::::}|          >###########<::::::::::_(###########@           ",
"           @###########]                                  >###########^           ]###########@           ",
"           @###########%                                  >###########;           %###########@           ",
"           @###########%                                  >###########;           %###########@           ",
"           @###########%                                  >###########;           %###########@           ",
"           @###########%                                  >###########;           %###########@           ",
"           @###########%                                  >###########;           %###########@           ",
"           @###########%                                  >###########;           %###########@           ",
"           @###########%                                  >###########;           %###########@           ",
"           @###########%                                  >###########;           %###########@           ",
"           @###########%                                  >###########;           %###########@           ",
"           @###########%                                  >###########;           %###########@           ",
"           @###########-,'''''''''12           3''''''''''45;;;;;;;;;;67''''''''',-###########@           ",
"           @#######################1           8##########(           7#######################@           ",
"           @#######################'           :##########:           '#######################@           ",
"           @#######################'           :##########:           '#######################@           ",
"           @#######################'           :##########:           '#######################@           ",
"           @#######################'           :##########:           '#######################@           ",
"           @#######################'           :##########:           '#######################@           ",
"           @#######################'           :##########:           '#######################@           ",
"           @#######################'           :##########:           '#######################@           ",
"           @#######################'           :##########:           '#######################@           ",
"           @#######################'           :##########:           '#######################@           ",
"           @#######################,           _##########_           ,#######################@           ",
"           @#######################-%%%%%%%%%%](##########(]%%%%%%%%%%-#######################@           ",
"           @##################################################################################@           ",
"           @##################################################################################@           ",
"           @##################################################################################@           ",
"           @##################################################################################@           ",
"           @##################################################################################@           ",
"           @##################################################################################@           ",
"           @##################################################################################@           ",
"           @##################################################################################@           ",
"           @##################################################################################@           ",
"           @##################################################################################@           ",
"           +##################################################################################+           ",
"           .+@@@@@@@@@@@@@@@@@@@@@@@@@@@@@@@@@@@@@@@@@@@@@@@@@@@@@@@@@@@@@@@@@@@@@@@@@@@@@@@@+.           ",
"                                                                                                          ",
"                                                                                                          ",
"                                                                                                          ",
"                                                                                                          ",
"                                                                                                          ",
"                                                                                                          ",
"                                                                                                          ",
"                                                                                                          ",
"                                                                                                          ",
"                                                                                                          ",
"                                                                                                          "};
