/* XPM */
static char * icon_xpm[] = {
"110 111 2 1",
" 	g #FFFFFF",
".	g #000000",
"                                                                                                              ",
"                                                                                                              ",
"                                                                                                              ",
"                                                                                                              ",
"                                                                                                              ",
"     ....................................................................................................     ",
"     ....................................................................................................     ",
"     ....................................................................................................     ",
"     ....................................................................................................     ",
"     ....................................................................................................     ",
"     ....................................................................................................     ",
"     ....................................................................................................     ",
"     ....................................................................................................     ",
"     ....................................................................................................     ",
"     ....................................................................................................     ",
"     ....................................................................................................     ",
"     ....................................................................................................     ",
"     ....................................................................................................     ",
"     ....................................................................................................     ",
"     ..............              ..............                                          ................     ",
"     ..............              ..............                                          ................     ",
"     ..............              ..............                                          ................     ",
"     ..............              ..............                                          ................     ",
"     ..............              ..............                                          ................     ",
"     ..............              ..............                                          ................     ",
"     ..............              ..............                                          ................     ",
"     ..............              ..............                                          ................     ",
"     ..............              ..............                                          ................     ",
"     ..............              ..............                                          ................     ",
"     ..............              ..............                                          ................     ",
"     ..............              ..............                                          ................     ",
"     ..............              ..............                                          ................     ",
"     ..............              ..............                                          ................     ",
"     ..............              ..............                                          ................     ",
"     ..............              ..............                                          ................     ",
"     ..............              ..............                                          ................     ",
"     ..............              ..............                                          ................     ",
"     ..............              ..............                                          ................     ",
"     ..............              ..............                                          ................     ",
"     ..............              ..............                                          ................     ",
"     ..............              ..............                                          ................     ",
"     ..............              ..............                                          ................     ",
"     ..............              ..............                                          ................     ",
"     ..............              ..............                                          ................     ",
"     ..............              ..............                                          ................     ",
"     ..............              ..............                                          ................     ",
"     ..............              ..............                                          ................     ",
"     ............................                                          ..............................     ",
"     ............................                                          ..............................     ",
"     ............................                                          ..............................     ",
"     ............................                                          ..............................     ",
"     ............................                                          ..............................     ",
"     ............................                                          ..............................     ",
"     ............................                                          ..............................     ",
"     ............................                                          ..............................     ",
"     ............................                                          ..............................     ",
"     ............................                                          ..............................     ",
"     ............................                                          ..............................     ",
"     ............................                                          ..............................     ",
"     ............................                                          ..............................     ",
"     ............................                                          ..............................     ",
"     ..............              ..............                                          ................     ",
"     ..............              ..............                                          ................     ",
"     ..............              ..............                                          ................     ",
"     ..............              ..............                                          ................     ",
"     ..............              ..............                                          ................     ",
"     ..............              ..............                                          ................     ",
"     ..............              ..............                                          ................     ",
"     ..............              ..............                                          ................     ",
"     ..............              ..............                                          ................     ",
"     ..............              ..............                                          ................     ",
"     ..............              ..............                                          ................     ",
"     ..............              ..............                                          ................     ",
"     ..............              ..............                                          ................     ",
"     ..............              ..............                                          ................     ",
"     ............................              ............................              ................     ",
"     ............................              ............................              ................     ",
"     ............................              ............................              ................     ",
"     ............................              ............................              ................     ",
"     ............................              ............................              ................     ",
"     ............................              ............................              ................     ",
"     ............................              ............................              ................     ",
"     ............................              ............................              ................     ",
"     ............................              ............................              ................     ",
"     ............................              ............................              ................     ",
"     ............................              ............................              ................     ",
"     ............................              ............................              ................     ",
"     ............................              ............................              ................     ",
"     ............................              ............................              ................     ",
"     ....................................................................................................     ",
"     ....................................................................................................     ",
"     ....................................................................................................     ",
"     ....................................................................................................     ",
"     ....................................................................................................     ",
"     ....................................................................................................     ",
"     ....................................................................................................     ",
"     ....................................................................................................     ",
"     ....................................................................................................     ",
"     ....................................................................................................     ",
"     ....................................................................................................     ",
"     ....................................................................................................     ",
"     ....................................................................................................     ",
"     ....................................................................................................     ",
"     ....................................................................................................     ",
"     ....................................................................................................     ",
"                                                                                                              ",
"                                                                                                              ",
"                                                                                                              ",
"                                                                                                              ",
"                                                                                                              ",
"                                                                                                              "};
