/* XPM */
static char * icon_research_xpm[] = {
"28 32 456 2",
"  	c None",
". 	c #C4E0EB",
"+ 	c #5399B5",
"@ 	c #497E8F",
"# 	c #68AAC4",
"$ 	c #2D8CB3",
"% 	c #0F759D",
"& 	c #004259",
"* 	c #1B596F",
"= 	c #5B8D9C",
"- 	c #99C5D7",
"; 	c #358FB3",
"> 	c #147FA5",
", 	c #2087AE",
"' 	c #1A7BA1",
") 	c #034C60",
"! 	c #00475F",
"~ 	c #004057",
"{ 	c #215E72",
"] 	c #9CB9C2",
"^ 	c #B1D2DF",
"/ 	c #4496B7",
"( 	c #127DA6",
"_ 	c #1A83A7",
": 	c #2186A9",
"< 	c #2087AD",
"[ 	c #13789F",
"} 	c #004960",
"| 	c #00485F",
"1 	c #004961",
"2 	c #00435B",
"3 	c #003E57",
"4 	c #3A7485",
"5 	c #9ABCC5",
"6 	c #BED9E3",
"7 	c #5BA4C2",
"8 	c #127EA5",
"9 	c #1882A7",
"0 	c #2187AA",
"a 	c #1F85A9",
"b 	c #1981A7",
"c 	c #1B81A9",
"d 	c #4697B2",
"e 	c #1A566D",
"f 	c #00445B",
"g 	c #004860",
"h 	c #024B63",
"i 	c #00415A",
"j 	c #03465C",
"k 	c #5C8793",
"l 	c #BBCED9",
"m 	c #D8E9EE",
"n 	c #84BDD1",
"o 	c #1D83A8",
"p 	c #1680A6",
"q 	c #2086AA",
"r 	c #1C83A9",
"s 	c #157EA8",
"t 	c #308EB2",
"u 	c #89C5D7",
"v 	c #AFDBDB",
"w 	c #627F83",
"x 	c #3A6772",
"y 	c #084D64",
"z 	c #00465D",
"A 	c #003F56",
"B 	c #0B4D63",
"C 	c #76A3AD",
"D 	c #E6EBF1",
"E 	c #8DBDD4",
"F 	c #308BB0",
"G 	c #0B78A2",
"H 	c #1D84A8",
"I 	c #2287AA",
"J 	c #167FA5",
"K 	c #278BAC",
"L 	c #77BDCD",
"M 	c #B1DEE6",
"N 	c #B9E5E9",
"O 	c #A1D4D8",
"P 	c #617F83",
"Q 	c #617E7C",
"R 	c #5A7A7C",
"S 	c #2F6270",
"T 	c #034960",
"U 	c #004962",
"V 	c #00455D",
"W 	c #003C53",
"X 	c #256071",
"Y 	c #8AAAB4",
"Z 	c #99C7D9",
"` 	c #539FBE",
" .	c #107BA6",
"..	c #1D84A9",
"+.	c #147EA6",
"@.	c #1D85A8",
"#.	c #63B1C6",
"$.	c #A2D7E0",
"%.	c #B7E5E7",
"&.	c #AEDFE2",
"*.	c #AFE1E4",
"=.	c #607F83",
"-.	c #5B7B7B",
";.	c #5D7C7D",
">.	c #627D7F",
",.	c #50747A",
"'.	c #275C6B",
").	c #00475D",
"!.	c #00465F",
"~.	c #003E55",
"{.	c #467B8D",
"].	c #9BB7C0",
"^.	c #1D83AA",
"/.	c #2086A9",
"(.	c #2186AA",
"_.	c #1983A7",
":.	c #177EA6",
"<.	c #489FBB",
"[.	c #9FD1DC",
"}.	c #B9E5E8",
"|.	c #B2E0E5",
"1.	c #ADDEE2",
"2.	c #B0E1E5",
"3.	c #A0D4D8",
"4.	c #5F7E82",
"5.	c #5C7D7D",
"6.	c #5C7D7C",
"7.	c #5F7E7D",
"8.	c #647E81",
"9.	c #4B727A",
"0.	c #115064",
"a.	c #003B52",
"b.	c #2B677A",
"c.	c #1B82A9",
"d.	c #3691B2",
"e.	c #8BC5D2",
"f.	c #AFE2E6",
"g.	c #B0E0E4",
"h.	c #ACDEE2",
"i.	c #ADDFE2",
"j.	c #AEDFE3",
"k.	c #ABDEE2",
"l.	c #ABE0E4",
"m.	c #ACD6DA",
"n.	c #6A8084",
"o.	c #587A7A",
"p.	c #5B7C7C",
"q.	c #5D7D7D",
"r.	c #5C7C7C",
"s.	c #5E7D7D",
"t.	c #5B7A7C",
"u.	c #3F6973",
"v.	c #00445C",
"w.	c #2B647A",
"x.	c #3291B1",
"y.	c #A8DCE1",
"z.	c #B6E3E7",
"A.	c #AFDFE3",
"B.	c #A9DDE1",
"C.	c #B5E0E6",
"D.	c #DBECEF",
"E.	c #E5E3E4",
"F.	c #898B8F",
"G.	c #727E83",
"H.	c #5F7B7E",
"I.	c #5A7C7C",
"J.	c #5E7C7D",
"K.	c #637F7E",
"L.	c #56757C",
"M.	c #044C62",
"N.	c #00435C",
"O.	c #2A647A",
"P.	c #1C84A8",
"Q.	c #3693B5",
"R.	c #AADBE2",
"S.	c #B0E0E3",
"T.	c #AADEE2",
"U.	c #CEE8EA",
"V.	c #F1EEEE",
"W.	c #F5F5F5",
"X.	c #E4E3E4",
"Y.	c #888B90",
"Z.	c #878589",
"`.	c #84868A",
" +	c #707F82",
".+	c #5A7B7C",
"++	c #5E7E7D",
"@+	c #57787A",
"#+	c #074C63",
"$+	c #3593B5",
"%+	c #A9DAE2",
"&+	c #A9DEE2",
"*+	c #C3E3EA",
"=+	c #E8F0F2",
"-+	c #F2F3F3",
";+	c #EEF1F1",
">+	c #F1F5F5",
",+	c #E3E3E4",
"'+	c #888B8F",
")+	c #848488",
"!+	c #858689",
"~+	c #88878B",
"{+	c #7F8688",
"]+	c #697E81",
"^+	c #5D7C7C",
"/+	c #55787A",
"(+	c #A6DDE1",
"_+	c #E2EDF0",
":+	c #F3F4F3",
"<+	c #EEF3F3",
"[+	c #86858A",
"}+	c #858589",
"|+	c #8B888A",
"1+	c #758487",
"2+	c #5A797F",
"3+	c #5D7D7C",
"4+	c #A7DDE1",
"5+	c #E0ECEF",
"6+	c #EFF3F3",
"7+	c #89878A",
"8+	c #738387",
"9+	c #DFECEF",
"0+	c #EEF2F2",
"a+	c #F5F7F7",
"b+	c #E6E6E7",
"c+	c #86898D",
"d+	c #838387",
"e+	c #85858A",
"f+	c #F1F3F2",
"g+	c #F1F4F4",
"h+	c #F4F5F6",
"i+	c #E7E7EA",
"j+	c #C2C4C9",
"k+	c #A0A1A4",
"l+	c #878B8F",
"m+	c #858488",
"n+	c #8A878A",
"o+	c #E0EDF0",
"p+	c #F7F7F9",
"q+	c #E8E9EB",
"r+	c #C9CACF",
"s+	c #B3B3B7",
"t+	c #AFAEB2",
"u+	c #B4B5B9",
"v+	c #B0B1B5",
"w+	c #979EA2",
"x+	c #88898D",
"y+	c #868386",
"z+	c #728386",
"A+	c #ABE2E6",
"B+	c #E1EEF2",
"C+	c #CFD0D4",
"D+	c #B1B1B5",
"E+	c #AFAFB3",
"F+	c #B2B2B6",
"G+	c #B2B1B6",
"H+	c #B5B5B7",
"I+	c #ADB2B5",
"J+	c #989DA0",
"K+	c #798488",
"L+	c #59787B",
"M+	c #A8DAE1",
"N+	c #B2E4E6",
"O+	c #ADE1E7",
"P+	c #99C6CB",
"Q+	c #91ACB2",
"R+	c #A6ACAF",
"S+	c #B5B3B5",
"T+	c #B1B2B5",
"U+	c #B1B2B6",
"V+	c #B8B5B7",
"W+	c #ACB5B7",
"X+	c #81A0A5",
"Y+	c #618289",
"Z+	c #5B787D",
"`+	c #56787B",
" @	c #1C83A8",
".@	c #3795B7",
"+@	c #AEE0E6",
"@@	c #A2CEDA",
"#@	c #8AABB4",
"$@	c #7A9FA4",
"%@	c #7AA1A4",
"&@	c #7CA2A8",
"*@	c #95AAAE",
"=@	c #B3B4B6",
"-@	c #B6B4B6",
";@	c #B3B2B6",
">@	c #B6B4B7",
",@	c #AEB1B3",
"'@	c #90A8AD",
")@	c #7CA1A8",
"!@	c #7EA3A7",
"~@	c #82A6AB",
"{@	c #729499",
"]@	c #677F84",
"^@	c #577579",
"/@	c #074C62",
"(@	c #1E87AF",
"_@	c #2C87AA",
":@	c #86B0B5",
"<@	c #84A4A6",
"[@	c #7BA0A6",
"}@	c #7CA1A5",
"|@	c #7DA1A6",
"1@	c #79A0A7",
"2@	c #7DA2A7",
"3@	c #9DAFB1",
"4@	c #B3B2B5",
"5@	c #B2B5B6",
"6@	c #95A9AD",
"7@	c #7CA2A6",
"8@	c #7AA1A7",
"9@	c #7CA2A7",
"0@	c #7EA3A9",
"a@	c #86AAAD",
"b@	c #5E8991",
"c@	c #054C62",
"d@	c #2489AF",
"e@	c #1E85AD",
"f@	c #1B7092",
"g@	c #0F5F7D",
"h@	c #1A637F",
"i@	c #528794",
"j@	c #81A5A9",
"k@	c #80A4A7",
"l@	c #7AA0A5",
"m@	c #7CA1A6",
"n@	c #7DA2A6",
"o@	c #89A8AC",
"p@	c #85A4A8",
"q@	c #79A0A4",
"r@	c #7AA1A5",
"s@	c #82A4A8",
"t@	c #4E8597",
"u@	c #186582",
"v@	c #10607E",
"w@	c #0B546C",
"x@	c #00445A",
"y@	c #2C6379",
"z@	c #1C779C",
"A@	c #0B5F80",
"B@	c #125D7B",
"C@	c #146181",
"D@	c #126080",
"E@	c #0A5E7C",
"F@	c #246A83",
"G@	c #64929F",
"H@	c #89A7A9",
"I@	c #81A3A6",
"J@	c #7DA1A5",
"K@	c #7BA3A7",
"L@	c #87A6A9",
"M@	c #5C8E9C",
"N@	c #1D6683",
"O@	c #0B5E7B",
"P@	c #136080",
"Q@	c #146182",
"R@	c #146282",
"S@	c #015372",
"T@	c #327085",
"U@	c #C6D6DE",
"V@	c #4F88A0",
"W@	c #105F7B",
"X@	c #105E7E",
"Y@	c #136082",
"Z@	c #105E80",
"`@	c #095D7C",
" #	c #2D748A",
".#	c #6C97A4",
"+#	c #86A8AA",
"@#	c #7CA3A7",
"##	c #7CA3A8",
"$#	c #84A9AC",
"%#	c #6894A0",
"&#	c #2B7288",
"*#	c #095D7E",
"=#	c #115E81",
"-#	c #136182",
";#	c #0D5C7C",
">#	c #14617E",
",#	c #6598AB",
"'#	c #79A5B8",
")#	c #3F7E94",
"!#	c #0A5C79",
"~#	c #0E5D7E",
"{#	c #146081",
"]#	c #166183",
"^#	c #0F6080",
"/#	c #458192",
"(#	c #83A8AB",
"_#	c #87A8AA",
":#	c #7B9EA6",
"<#	c #407D8E",
"[#	c #0D5E7E",
"}#	c #105F80",
"|#	c #166182",
"1#	c #146082",
"2#	c #0D5C7B",
"3#	c #397B91",
"4#	c #89AFC2",
"5#	c #7AA5B5",
"6#	c #256E89",
"7#	c #075A77",
"8#	c #105F7F",
"9#	c #0C5C7C",
"0#	c #156481",
"a#	c #528597",
"b#	c #86A7AA",
"c#	c #81A2A8",
"d#	c #4A8496",
"e#	c #126280",
"f#	c #0B5D7C",
"g#	c #0F5E7F",
"h#	c #0D5E79",
"i#	c #2C718D",
"j#	c #9ABCC6",
"k#	c #83ABBD",
"l#	c #025C79",
"m#	c #156382",
"n#	c #146283",
"o#	c #105F81",
"p#	c #095E7D",
"q#	c #246B84",
"r#	c #216B86",
"s#	c #085E7D",
"t#	c #116081",
"u#	c #136383",
"v#	c #015777",
"w#	c #236B87",
"x#	c #729FB2",
"y#	c #ADC9D0",
"z#	c #52899E",
"A#	c #0C5D7C",
"B#	c #075B7A",
"C#	c #156182",
"D#	c #11607F",
"E#	c #055A79",
"F#	c #1B6884",
"G#	c #578DA5",
"H#	c #C7D9DE",
"I#	c #B2CAD6",
"J#	c #407E98",
"K#	c #035675",
"L#	c #0E5D7F",
"M#	c #025677",
"N#	c #4E889F",
"O#	c #A6C2CE",
"P#	c #92B6C4",
"Q#	c #357992",
"R#	c #005575",
"S#	c #015676",
"T#	c #448399",
"U#	c #A2BFCE",
"V#	c #75A3B5",
"W#	c #7EA9B9",
"                        . + @                           ",
"                      # $ % & * =                       ",
"                  - ; > , ' ) ! ~ { ]                   ",
"              ^ / ( _ : < [ } | 1 2 3 4 5               ",
"          6 7 8 9 0 a b c d e f ! g h i j k l           ",
"      m n o p a q r s t u v w x y z g 1 g A B C D       ",
"    E F G H I a J K L M N O P Q R S T z 1 U V W X Y     ",
"Z `  ...0 a +.@.#.$.%.&.*.O =.-.;.>.,.'.).!.g 1 V ~.{.].",
"^.+./.(._.:.<.[.}.|.1.1.2.3.4.-.5.6.7.8.9.0.V g 1 g a.b.",
"(.q /.c.d.e.f.g.h.i.j.k.l.m.n.o.p.q.;.r.s.t.u.B g g v.w.",
"/.a H x.y.z.A.1.&.1.B.C.D.E.F.G.H.I.6.;.6.J.K.L.M.g N.O.",
"q q P.Q.R.S.j.j.T.j.U.V.W.X.Y.Z.`. +.+p.;.6.++@+#+g N.O.",
"q q P.$+%+g.j.&+*+=+-+;+>+,+'+)+!+~+{+]+p.^+7./+#+g N.O.",
"q q P.$+%+g.j.(+_+:+<+<+>+,+'+)+[+}+|+1+2+3+7./+#+g N.O.",
"q q P.$+%+g.j.4+5+-+<+6+>+,+Y.)+}+}+7+8+2+3+7./+#+g N.O.",
"q q P.$+%+g.j.4+9+-+0+<+a+b+c+d+}+e+7+8+2+6.7./+#+g N.O.",
"/./.P.$+%+g.j.4+5+f+g+h+i+j+k+l+m+}+n+8+2+6.7./+#+g N.O.",
"q q P.$+%+g.j.(+o+p+q+r+s+t+u+v+w+x+y+z+2+6.7./+#+g N.O.",
"/./.P.$+%+S.j.A+B+C+D+E+D+F+D+G+H+I+J+K+L+6.7./+#+g N.O.",
"q /.P.$+M+N+O+P+Q+R+S+T+D+F+F+D+U+V+W+X+Y+Z+^+`+#+g N.O.",
"/./. @.@+@@@#@$@%@&@*@=@-@G+;@>@,@'@)@!@~@{@]@^@/@g N.O.",
"/./.(@_@:@<@[@}@|@}@1@2@3@4@5@6@7@8@}@}@9@0@a@b@c@z N.O.",
"d@e@f@g@h@i@j@k@l@m@n@}@1@o@p@q@}@n@n@r@s@n@t@u@v@w@x@y@",
"z@A@B@C@D@E@F@G@H@I@m@J@J@K@7@J@J@7@k@L@M@N@O@P@Q@R@S@T@",
"U@V@W@X@Q@Y@Z@`@ #.#+#@#}@J@J@}@##$#%#&#*#=#-#C@;#>#,#  ",
"    '#)#!#~#{#]#Z@^#/#9@(#n@!@_#:#<#[#}#|#1#2#g@3#4#    ",
"        5#6#7#8#1#1#9#0#a#b#c#d#e#f#1#Q@g#h#i#j#        ",
"            k#u@l#m#n#o#p#q#r#s#t#n#u#v#w#x#            ",
"              y#z#A#B#1#C#D#D#C#{#E#F#G#H#              ",
"                  I#J#K#Z@C#C#L#M#N#O#                  ",
"                      P#Q#R#S#T#U#                      ",
"                          V#W#                          "};
