/* XPM */
static char * icon_ucl_xpm[] = {
"32 32 264 2",
"  	c #191512",
". 	c #1A1613",
"+ 	c #16120F",
"@ 	c #231F1C",
"# 	c #181411",
"$ 	c #1D1916",
"% 	c #171310",
"& 	c #1F160F",
"* 	c #191410",
"= 	c #1E1A17",
"- 	c #161616",
"; 	c #1C1815",
"> 	c #15110E",
", 	c #1C1713",
"' 	c #18130F",
") 	c #131210",
"! 	c #161513",
"~ 	c #1B1714",
"{ 	c #1A1511",
"] 	c #1E1915",
"^ 	c #1C1C1C",
"/ 	c #1A1917",
"( 	c #1B140E",
"_ 	c #1F1812",
": 	c #110D0A",
"< 	c #101010",
"[ 	c #141311",
"} 	c #201913",
"| 	c #181818",
"1 	c #1C150F",
"2 	c #0F0B08",
"3 	c #0C0805",
"4 	c #625E5B",
"5 	c #5C5855",
"6 	c #171614",
"7 	c #1A130D",
"8 	c #1D1E20",
"9 	c #060200",
"0 	c #B4B0AD",
"a 	c #A9A5A2",
"b 	c #181D21",
"c 	c #10100E",
"d 	c #1E1E1C",
"e 	c #050503",
"f 	c #141412",
"g 	c #CBCBC9",
"h 	c #C3C3C1",
"i 	c #010100",
"j 	c #0F0F0D",
"k 	c #1B140C",
"l 	c #19160F",
"m 	c #10181B",
"n 	c #171715",
"o 	c #0C0C0A",
"p 	c #2E2E2C",
"q 	c #ABABA9",
"r 	c #FFFFFD",
"s 	c #F9F9F7",
"t 	c #ACACAA",
"u 	c #1A1A18",
"v 	c #0B0704",
"w 	c #151513",
"x 	c #21211F",
"y 	c #C8C8C6",
"z 	c #F5F5F3",
"A 	c #C5C5C3",
"B 	c #010101",
"C 	c #606060",
"D 	c #FDFDFD",
"E 	c #FFFFFF",
"F 	c #FAFAFA",
"G 	c #F9F9F9",
"H 	c #4A4643",
"I 	c #0D0906",
"J 	c #14100D",
"K 	c #1F1B18",
"L 	c #000000",
"M 	c #979797",
"N 	c #F7F7F7",
"O 	c #FEFEFE",
"P 	c #F8F8F8",
"Q 	c #878380",
"R 	c #080401",
"S 	c #1C1C1E",
"T 	c #C4C4C6",
"U 	c #FEFEFF",
"V 	c #F5F5F7",
"W 	c #F7F7F9",
"X 	c #FBFBFD",
"Y 	c #C3BFBC",
"Z 	c #130F0C",
"` 	c #1D1D1F",
" .	c #DFDFE1",
"..	c #F4F4F6",
"+.	c #D3D3D5",
"@.	c #A0A0A2",
"#.	c #979799",
"$.	c #CBCBCD",
"%.	c #CAC6C3",
"&.	c #0E0A07",
"*.	c #101012",
"=.	c #98989A",
"-.	c #929294",
";.	c #99999B",
">.	c #9B9B9D",
",.	c #A9A9AB",
"'.	c #919193",
").	c #A09C99",
"!.	c #0A0603",
"~.	c #181713",
"{.	c #1B1A16",
"].	c #1D1C18",
"^.	c #050400",
"/.	c #42413D",
"(.	c #656460",
"_.	c #979692",
":.	c #C8C7C3",
"<.	c #EBEAE8",
"[.	c #FEFDFB",
"}.	c #FAF9F7",
"|.	c #FFFEFC",
"1.	c #F9F8F6",
"2.	c #F1F0EE",
"3.	c #ECEBE9",
"4.	c #BEBDBB",
"5.	c #92918F",
"6.	c #686765",
"7.	c #3A3937",
"8.	c #080705",
"9.	c #191816",
"0.	c #181617",
"a.	c #17140F",
"b.	c #1E170F",
"c.	c #141519",
"d.	c #191814",
"e.	c #13120E",
"f.	c #161511",
"g.	c #6E6D69",
"h.	c #FFFFFB",
"i.	c #F8F7F3",
"j.	c #FCFBF7",
"k.	c #F6F5F3",
"l.	c #F5F4F2",
"m.	c #FCFBF9",
"n.	c #6E6D6B",
"o.	c #12110D",
"p.	c #1C1B17",
"q.	c #0D0C08",
"r.	c #22211D",
"s.	c #E5E4E0",
"t.	c #4C4B47",
"u.	c #DEDDDB",
"v.	c #454442",
"w.	c #282725",
"x.	c #E1E0DE",
"y.	c #4C4B49",
"z.	c #E8E7E5",
"A.	c #EAE9E7",
"B.	c #434240",
"C.	c #21201E",
"D.	c #0C0B09",
"E.	c #201F1D",
"F.	c #020100",
"G.	c #EEEDE9",
"H.	c #EFEEEC",
"I.	c #474644",
"J.	c #4E4D4B",
"K.	c #0E0D0B",
"L.	c #F0EFED",
"M.	c #F7F6F4",
"N.	c #3E3D3B",
"O.	c #EDECEA",
"P.	c #040301",
"Q.	c #1D1C1A",
"R.	c #12110F",
"S.	c #1A1915",
"T.	c #040300",
"U.	c #EDECE8",
"V.	c #403F3B",
"W.	c #262523",
"X.	c #E6E5E3",
"Y.	c #1F1E1C",
"Z.	c #3F3E3C",
"`.	c #151412",
" +	c #0B0A08",
".+	c #1E1D1B",
"++	c #151410",
"@+	c #0A0905",
"#+	c #474642",
"$+	c #14130F",
"%+	c #0F0E0C",
"&+	c #E7E6E4",
"*+	c #484745",
"=+	c #E9E8E6",
"-+	c #F4F3F1",
";+	c #42413F",
">+	c #E0DFDD",
",+	c #050402",
"'+	c #22211F",
")+	c #171612",
"!+	c #E8E7E3",
"~+	c #44433F",
"{+	c #E4E3E1",
"]+	c #444341",
"^+	c #1B1A18",
"/+	c #41403E",
"(+	c #11100E",
"_+	c #030200",
":+	c #454440",
"<+	c #EEEDEB",
"[+	c #464543",
"}+	c #181715",
"|+	c #E5E1DE",
"1+	c #D8D4D1",
"2+	c #DAD6D3",
"3+	c #E2E2E2",
"4+	c #D2D2D2",
"5+	c #DFDFDF",
"6+	c #E5E5E5",
"7+	c #D4D4D4",
"8+	c #DADADA",
"9+	c #E7E7E7",
"0+	c #D7D7D7",
"a+	c #D9D8D4",
"b+	c #E6E5E1",
"c+	c #D6D5D1",
"d+	c #E9E8E4",
"e+	c #100F0B",
"f+	c #181619",
"g+	c #1C150D",
"h+	c #131416",
"i+	c #7A7673",
"j+	c #FDF9F6",
"k+	c #FFFCF9",
"l+	c #FFFEFB",
"m+	c #FBFBFB",
"n+	c #FCFCFC",
"o+	c #FBFAF6",
"p+	c #686763",
"q+	c #080703",
"r+	c #25211E",
"s+	c #C9C5C2",
"t+	c #F9F5F2",
"u+	c #F9F8F4",
"v+	c #FFFEFA",
"w+	c #B9B8B4",
"x+	c #1E1D19",
"y+	c #4D4946",
"z+	c #4B4744",
"A+	c #474340",
"B+	c #4B4A46",
"C+	c #41403C",
"D+	c #484743",
"E+	c #0B0A06",
"F+	c #030000",
"G+	c #100C09",
"H+	c #0A0907",
"I+	c #060501",
"J+	c #11100C",
"K+	c #24201D",
"L+	c #24231F",
"M+	c #201F1B",
"N+	c #0E0D09",
"O+	c #1F1E1A",
"                        . . + @ # $ %                 & * = - - ",
"                      ; > ;   + > $                   , ' # ) ! ",
"                      ; > ~ $ > ~ $                   ;     { ] ",
"                      . . + = . = $ #                 ^ / * ( _ ",
"                        . % ; : : $ #                 < [ { _ } ",
"                      . % $ > ;   # .                 | $ } 1 2 ",
"                        # = 3 4 5 2                   6 % 7 * 8 ",
"                      # $ ~ 9 0 a 9 >                 ; { 1 * b ",
"      . .             c d e f g h i j . ; # > ; $ # . 6 { k l m ",
"      .           # # n o p q r s t u v ; =     +   ; 6 { k l m ",
"                # # # w x y r z r r A ~   ; . ~ . . + 6 { k l m ",
"              . . . . B C D E F E G E H I J #   K   + 6 { k l m ",
"            . . ~ ~ ~ L M N O E E E P Q R > ~ : ~ > K 6 { k l m ",
"      . .             S T E U V W X E Y + . K J = J ; 6 { k l m ",
"      ~ .   # + > J Z `  ...+.@.#.$.U %.K J   > ; # > 6 { k l m ",
"      ; ~   + Z : 2 &.*.=.-.;.>.,.=.'.).Z R 3 !.&.. # 6 { k l m ",
"      ~.{.].^./.(._.:.<.[.}.r r |.1.r 2.3.4.5.6.7.8.9.0.a.k b.c.",
"      ~.d.e.f.g.h.i.j.r }.k.r l.[.r k.m.r r 1.m.n.[ [ 0.a.k b.c.",
"      o.p.e.q.r.s.t.e.u.v.w.x.y./ z.y./ A.B.C.A.! D.E.0.a.k b.c.",
"      f.].~.e.F.G./.p.H.I.! 3.J.K.L.B.6 M.N.[ O.P.Q.R.0.a.k b.c.",
"      ~.f.f.S.T.U.V.S.2.7.W.X.N.Y.O.Z.9.z.v.`.<. + +.+0.a.k b.c.",
"      S.++++~.@+U.#+$+A.B.%+&+*+D.=+*+! -+;+E.>+,+'+`.0.a.k b.c.",
"      S.d.)+++F.!+~+e.{+]+Y.O.I.^+H./+! z./+Q.<.P.(+Q.0.a.k b.c.",
"      ++f.f.S._+G.:+{.=+*+6 &+;+) <+[+^+H.*+[ <._+9.}+0.a.k b.c.",
"      + ; # + @ |+1+2+3+4+5+6+7+8+9+0+a+b+c+a+d+)+e+~.f+  g+1 h+",
"      $     !.i+j+k+l+E m+E E n+E E D h.h.h.o+j.p+q+o.f+  g+1 h+",
"      ; J = r+s+l+l+t+D E D n+E O n+E h.u+h.h.v+w+x+$+f+  g+1 h+",
"        # > % y+y+z+A+]+*+v.B.I.[+B.I./.B+C+D+:+#+E+~.f+  g+1 h+",
"      ~ = # ; 2 F+2 G+ +H+ + +H+ + +H+I+J+q+e+@+e+)+S.f+  g+1 h+",
"      ~   # . K+> $ J . >   ~ + # ; % L+f.)+$+)+~.M+$+f+  g+1 h+",
"      % . ~ > = J   = ~ # ~ ;   . ;   o.N+O+S.d.++)+~.f+  g+1 h+",
"        ~ J ; J K : ~ #   # #     #   f.d.)+)+)+++f.S.f+  g+1 h+"};
