/* XPM */
static char * icon_xpm[] = {
"41 32 99 2",
"  	c None",
". 	c #323232",
"+ 	c #313131",
"@ 	c #303030",
"# 	c #2F2F2F",
"$ 	c #2E2E2E",
"% 	c #2D2D2D",
"& 	c #232323",
"* 	c #222222",
"= 	c #292929",
"- 	c #333333",
"; 	c #616161",
"> 	c #545454",
", 	c #4B4B4B",
"' 	c #4D4D4D",
") 	c #525252",
"! 	c #606060",
"~ 	c #454545",
"{ 	c #3D3D3D",
"] 	c #3F3F3F",
"^ 	c #434343",
"/ 	c #414141",
"( 	c #575757",
"_ 	c #474747",
": 	c #383838",
"< 	c #393939",
"[ 	c #3A3A3A",
"} 	c #373737",
"| 	c #343434",
"1 	c #353535",
"2 	c #404040",
"3 	c #3B3B3B",
"4 	c #444444",
"5 	c #464646",
"6 	c #424242",
"7 	c #5B5B5B",
"8 	c #636363",
"9 	c #626262",
"0 	c #5E5E5E",
"a 	c #565656",
"b 	c #3C3C3C",
"c 	c #2C2C2C",
"d 	c #515151",
"e 	c #535353",
"f 	c #505050",
"g 	c #595959",
"h 	c #666666",
"i 	c #676767",
"j 	c #686868",
"k 	c #696969",
"l 	c #656565",
"m 	c #4C4C4C",
"n 	c #3E3E3E",
"o 	c #4E4E4E",
"p 	c #363636",
"q 	c #494949",
"r 	c #646464",
"s 	c #5A5A5A",
"t 	c #5C5C5C",
"u 	c #484848",
"v 	c #282828",
"w 	c #5F5F5F",
"x 	c #787878",
"y 	c #7C7C7C",
"z 	c #7D7D7D",
"A 	c #7B7B7B",
"B 	c #6D6D6D",
"C 	c #4A4A4A",
"D 	c #6A6A6A",
"E 	c #878787",
"F 	c #888888",
"G 	c #848484",
"H 	c #2B2B2B",
"I 	c #898989",
"J 	c #868686",
"K 	c #858585",
"L 	c #585858",
"M 	c #6B6B6B",
"N 	c #8B8B8B",
"O 	c #6F6F6F",
"P 	c #555555",
"Q 	c #818181",
"R 	c #838383",
"S 	c #8C8C8C",
"T 	c #7A7A7A",
"U 	c #B2B2B2",
"V 	c #707070",
"W 	c #5D5D5D",
"X 	c #8A8A8A",
"Y 	c #8D8D8D",
"Z 	c #6C6C6C",
"` 	c #767676",
" .	c #2A2A2A",
"..	c #727272",
"+.	c #828282",
"@.	c #6E6E6E",
"#.	c #808080",
"$.	c #7E7E7E",
"%.	c #4F4F4F",
"                                      . + @ # $ % % % $ $ + .                     ",
"                                    . # & * & & & & & & & * = .                   ",
"                                    . = & & * * * * * & & * * @                   ",
"                                  - . + @ @ @ @ @ @ @ # # # # .                   ",
"                ; > , , ' ) !     . - - - - - - - - - . . . . - .                 ",
"              ; ~ { ] ^ ^ / (   . - . - . . . . . . . . . . - - - .               ",
"              _ { : < [ < } < | . . - . + 1 [ { 2 / ] 3 } . + . - - . -           ",
"      2 4 5 4 6 | . . . . . . . - % $ } 5 ) 7 ; 8 8 9 0 a , b . c + - . - - .     ",
"  [ _ 6 ] ^ d e f 1 . - - - - - . @ ^ g 8 h i j k k k j h l 0 ' | + - - - - -     ",
"  ] m ] n ] , > e - . - - - . . | ' ; i h 8 e 4 b 3 2 m 0 h i h ( b . . - - - .   ",
". 3 o ^ ] ^ d o b . p q 4 - . 1 o r j ; m - @ . - - - + @ / s i i g b . - - - .   ",
". $ | } : } p + $ $ { j i - - q 8 j t b @ p : b 5 u 2 < } . | o j i a } . - - . - ",
". = v v v v v = = = + q ~ - { w j 0 } + < ] ; x y z A B , [ 1 . C D l m . - - - . ",
". = v v v v v v v v c - - . e j h 3 . 3 , A E F F F F E G 0 n 1 | a k w 3 . - . - ",
". = v = = = = v = H @ - . { ; k o . : q A I F F J K F F F F L n + n l i ' + . - . ",
". = v = = = = v c - - . + , i 8 n - ] M N E I O g P h Q I I R 5 : | ( j 7 1 . - - ",
". = v = = = = v % - - . + a j s p } _ I F S 0 H H $ # q R F N 8 3 @ ' i ; { + - - ",
". = v = = = = v $ - - . 1 7 j P + [ s N I T 2 U V 0 ] . t N F z 3 - ~ r l 6 + . . ",
". = v = = = = v $ - - . } W j e # 3 h X X h q z T l t . 5 Y F E [ | / 8 h 4 + . - ",
". = v = = = = v $ - - . } W j e # 3 8 X X Z - 6 h i P . C Y F K 3 | 6 8 h 4 + - - ",
". = v = = = = v $ - - . | 7 j a . [ e S F G n @ 5 m } + Z X I ` 3 . _ l 8 / + - - ",
".  .v = = = = v $ - - . + e j W : p ^ R F I x 6 H H - r F F Y ( 3 @ d j w 3 . . - ",
".  .v = = = = v $ - - - + 5 l h / + ] t N F F G x ..+.E F I x 6 p } t j L . . - . ",
".  .v = = = = v $ - - - . : 0 k a | 1 6 @.F F F F F F F F #.m 3 + ~ j l 5 + - - - ",
".  .v = = = = v # - - - - . , h k 5 @ : 6 h $.I X X X R ..o [ . < ! j s } . - . . ",
".  .v = = = = v # - - - - . : g i l 4 $ p b ' 7 r l w e 6 : + p s k 9 ^ . - - . - ",
".  .v = = = = v # - - - - - - 2 w i r , @ . p [ ] ] b < | # { 0 i l m 1 . - - . - ",
".  .v = = = = v # - - - - - . . 4 w i i 7 { . . . . . . p f l i r f p . - - - - - ",
".  .v = = = = v # - - - - - - . + 6 g l i D w ) , C %.s i k h w m 1 . - - - - - - ",
". H v v v v v v @ - - - - - - - . + [ , 7 8 i D D D D j l ! ) 2 - . - - - - - - . ",
". + # % c % # @ . - - . - - - - - . . - < ^ o P g s ( d u { 1 . . - - - - - - . . ",
"  - . . . . . - - . - - - - - - . - . . . - | 1 1 1 1 | - . . . - - - - . - - -   "};
