/* XPM */
static char * C:\Workspace\SmartLiver\TMP\icons\us_pointer_calib_xpm[] = {
"50 50 384 2",
"  	c #FFFFFF",
". 	c #FEFEFE",
"+ 	c #DEDEDE",
"@ 	c #525252",
"# 	c #030303",
"$ 	c #010101",
"% 	c #000000",
"& 	c #ADADAD",
"* 	c #EBEBEB",
"= 	c #929292",
"- 	c #151515",
"; 	c #040404",
"> 	c #B1B1B1",
", 	c #3C3C3C",
"' 	c #313131",
") 	c #6F6F6F",
"! 	c #F9F9F9",
"~ 	c #5F5F5F",
"{ 	c #080808",
"] 	c #656565",
"^ 	c #B0B0B0",
"/ 	c #7A7A7A",
"( 	c #FCFCFC",
"_ 	c #BBBBBB",
": 	c #141414",
"< 	c #202020",
"[ 	c #A3A3A3",
"} 	c #616161",
"| 	c #333333",
"1 	c #D2D2D2",
"2 	c #5D5D5D",
"3 	c #1B1B1B",
"4 	c #707070",
"5 	c #B2B2B2",
"6 	c #737373",
"7 	c #4D4D4D",
"8 	c #595959",
"9 	c #474747",
"0 	c #FDFDFD",
"a 	c #808080",
"b 	c #1D1D1D",
"c 	c #636363",
"d 	c #A2A2A2",
"e 	c #848484",
"f 	c #666666",
"g 	c #555555",
"h 	c #5A5A5A",
"i 	c #585858",
"j 	c #505050",
"k 	c #C6C6C6",
"l 	c #252525",
"m 	c #B4B4B4",
"n 	c #7F7F7F",
"o 	c #4A4A4A",
"p 	c #303030",
"q 	c #EEEEEE",
"r 	c #0B0B0B",
"s 	c #535353",
"t 	c #626262",
"u 	c #5B5B5B",
"v 	c #515151",
"w 	c #646464",
"x 	c #F8F8F8",
"y 	c #2D2D2D",
"z 	c #393939",
"A 	c #818181",
"B 	c #B7B7B7",
"C 	c #606060",
"D 	c #4C4C4C",
"E 	c #676767",
"F 	c #545454",
"G 	c #565656",
"H 	c #484848",
"I 	c #D9D9D9",
"J 	c #050505",
"K 	c #9D9D9D",
"L 	c #B5B5B5",
"M 	c #7E7E7E",
"N 	c #464646",
"O 	c #6D6D6D",
"P 	c #4E4E4E",
"Q 	c #575757",
"R 	c #8D8D8D",
"S 	c #0C0C0C",
"T 	c #424242",
"U 	c #ABABAB",
"V 	c #6B6B6B",
"W 	c #5C5C5C",
"X 	c #686868",
"Y 	c #7B7B7B",
"Z 	c #B3B3B3",
"` 	c #A0A0A0",
" .	c #828282",
"..	c #6E6E6E",
"+.	c #444444",
"@.	c #767676",
"#.	c #797979",
"$.	c #6A6A6A",
"%.	c #9F9F9F",
"&.	c #727272",
"*.	c #5E5E5E",
"=.	c #404040",
"-.	c #414141",
";.	c #7D7D7D",
">.	c #3D3D3D",
",.	c #3E3E3E",
"'.	c #3A3A3A",
").	c #777777",
"!.	c #7C7C7C",
"~.	c #232323",
"{.	c #4F4F4F",
"].	c #323232",
"^.	c #909090",
"/.	c #939393",
"(.	c #1F1F1F",
"_.	c #454545",
":.	c #8F8F8F",
"<.	c #838383",
"[.	c #888888",
"}.	c #868686",
"|.	c #8A8A8A",
"1.	c #1C1C1C",
"2.	c #3F3F3F",
"3.	c #8C8C8C",
"4.	c #757575",
"5.	c #919191",
"6.	c #878787",
"7.	c #212121",
"8.	c #979797",
"9.	c #343434",
"0.	c #696969",
"a.	c #9C9C9C",
"b.	c #959595",
"c.	c #717171",
"d.	c #242424",
"e.	c #7D7C7B",
"f.	c #A4A39F",
"g.	c #2A2A2A",
"h.	c #717170",
"i.	c #EBEAE5",
"j.	c #373737",
"k.	c #292929",
"l.	c #8B8B8A",
"m.	c #BFBFBF",
"n.	c #D3D3D3",
"o.	c #959594",
"p.	c #9E9E9E",
"q.	c #949494",
"r.	c #858585",
"s.	c #D2D2D1",
"t.	c #8E8E8D",
"u.	c #222222",
"v.	c #D1D1D1",
"w.	c #4B4B4B",
"x.	c #AAAAAA",
"y.	c #999999",
"z.	c #CFCFCF",
"A.	c #262626",
"B.	c #A9A9A9",
"C.	c #BCBCBC",
"D.	c #0A0A0A",
"E.	c #ADADAC",
"F.	c #494949",
"G.	c #C3C3C3",
"H.	c #2C2C2C",
"I.	c #191919",
"J.	c #434343",
"K.	c #8E8E8E",
"L.	c #CCCCCC",
"M.	c #161616",
"N.	c #787878",
"O.	c #ABAAAB",
"P.	c #FEFFFE",
"Q.	c #FEFEFF",
"R.	c #C0C0C0",
"S.	c #969696",
"T.	c #9B9A9A",
"U.	c #D1D2D1",
"V.	c #3E3E3D",
"W.	c #CDCECE",
"X.	c #FEFDFD",
"Y.	c #F8F6F6",
"Z.	c #F6F1F1",
"`.	c #F9F2F1",
" +	c #FAF5F4",
".+	c #FEFCFB",
"++	c #747474",
"@+	c #4F504F",
"#+	c #A29C99",
"$+	c #B49795",
"%+	c #D2B8B6",
"&+	c #CF9F9A",
"*+	c #B5615B",
"=+	c #A9413D",
"-+	c #AB3C37",
";+	c #B55C54",
">+	c #CE8F8A",
",+	c #E9D2CF",
"'+	c #2B2424",
")+	c #8E5957",
"!+	c #8E352F",
"~+	c #9A1B11",
"{+	c #9E1B12",
"]+	c #A22117",
"^+	c #A32216",
"/+	c #A21E12",
"(+	c #9F1B12",
"_+	c #A53229",
":+	c #CC9290",
"<+	c #111111",
"[+	c #020202",
"}+	c #000101",
"|+	c #211515",
"1+	c #7A2018",
"2+	c #9E2219",
"3+	c #A32219",
"4+	c #AC231A",
"5+	c #AE251A",
"6+	c #AE2519",
"7+	c #AB2519",
"8+	c #A72418",
"9+	c #9F1F15",
"0+	c #9B1C15",
"a+	c #C98685",
"b+	c #181818",
"c+	c #060607",
"d+	c #383333",
"e+	c #A54641",
"f+	c #AD1F15",
"g+	c #AF2318",
"h+	c #B62519",
"i+	c #BB2619",
"j+	c #BD2719",
"k+	c #BB271B",
"l+	c #B62819",
"m+	c #AC241A",
"n+	c #A6231A",
"o+	c #9F2115",
"p+	c #9C241C",
"q+	c #E7CAC6",
"r+	c #121212",
"s+	c #9A9B9C",
"t+	c #FBDFDC",
"u+	c #AE1B11",
"v+	c #B8271A",
"w+	c #C12818",
"x+	c #C82919",
"y+	c #CC2A1A",
"z+	c #CD2A19",
"A+	c #CB2919",
"B+	c #C3281A",
"C+	c #B9281B",
"D+	c #AF2519",
"E+	c #A62419",
"F+	c #9F2119",
"G+	c #BD6D67",
"H+	c #FEFFFF",
"I+	c #DEDFDE",
"J+	c #D68C86",
"K+	c #BE1E10",
"L+	c #CB291A",
"M+	c #D22C19",
"N+	c #D92D1C",
"O+	c #DC2F1D",
"P+	c #DD301D",
"Q+	c #DA2E1D",
"R+	c #D22C1C",
"S+	c #C8291C",
"T+	c #AF261B",
"U+	c #A5231A",
"V+	c #B24B41",
"W+	c #F1E4E2",
"X+	c #6C6C6C",
"Y+	c #353535",
"Z+	c #060606",
"`+	c #CDCDCD",
" @	c #D66D60",
".@	c #CC2414",
"+@	c #D92C1C",
"@@	c #E0301E",
"#@	c #E5321F",
"$@	c #E83321",
"%@	c #E83320",
"&@	c #E53220",
"*@	c #DD2F1F",
"=@	c #D52C1C",
"-@	c #C72919",
";@	c #B7281A",
">@	c #AD261A",
",@	c #B13E34",
"'@	c #EBD4D2",
")@	c #FDFFFF",
"!@	c #0D0D0D",
"~@	c #DC6960",
"{@	c #D62716",
"]@	c #E2301E",
"^@	c #E93221",
"/@	c #EE3524",
"(@	c #F03625",
"_@	c #F13625",
":@	c #EE3623",
"<@	c #E83420",
"[@	c #DF2F1E",
"}@	c #D12D1C",
"|@	c #C22A1A",
"1@	c #B52719",
"2@	c #B54236",
"3@	c #EED7D6",
"4@	c #C5C5C5",
"5@	c #FFFFFE",
"6@	c #E99995",
"7@	c #DA2311",
"8@	c #F13525",
"9@	c #F43826",
"0@	c #F53826",
"a@	c #F63825",
"b@	c #F43825",
"c@	c #EE3423",
"d@	c #E63220",
"e@	c #D72E1E",
"f@	c #C92C1C",
"g@	c #B82819",
"h@	c #BB5346",
"i@	c #F3EAE8",
"j@	c #1E1E1E",
"k@	c #131313",
"l@	c #F4F4F4",
"m@	c #F4DFDC",
"n@	c #DD2C1C",
"o@	c #EA3321",
"p@	c #F23626",
"q@	c #F53825",
"r@	c #F03725",
"s@	c #E83421",
"t@	c #DD2F20",
"u@	c #CD2D1D",
"v@	c #BD2B1B",
"w@	c #D07B75",
"x@	c #E9E9E9",
"y@	c #FFFFFC",
"z@	c #FAF9F9",
"A@	c #EA8577",
"B@	c #EA2C1B",
"C@	c #E93321",
"D@	c #DD301F",
"E@	c #CB2D1C",
"F@	c #BC3224",
"G@	c #EFD9D6",
"H@	c #B8B8B8",
"I@	c #FDFFFD",
"J@	c #F6E3E1",
"K@	c #EE5A4D",
"L@	c #EB361F",
"M@	c #EF3525",
"N@	c #E93222",
"O@	c #D72D1A",
"P@	c #CA2D1E",
"Q@	c #DFA399",
"R@	c #F5F5F5",
"S@	c #F7DFDE",
"T@	c #F17361",
"U@	c #F23E2A",
"V@	c #EF2C1A",
"W@	c #F1311D",
"X@	c #ED311D",
"Y@	c #E62D17",
"Z@	c #DD2C1A",
"`@	c #D94A3C",
" #	c #E6B0A7",
".#	c #C9C9C9",
"+#	c #FFFEFE",
"@#	c #F4F7F5",
"##	c #F4C5C0",
"$#	c #F29A91",
"%#	c #F0776B",
"&#	c #F07369",
"*#	c #F1877E",
"=#	c #F2B1AC",
"-#	c #F8E5E1",
";#	c #0E0E0E",
">#	c #ACACAC",
",#	c #FEF8F8",
"'#	c #FEF8F7",
")#	c #FFFAFA",
"                                                        . + @ # $ $ % &                             ",
"                                                      * = - % ; $ $ % &                             ",
"                                                    > , % % ' ) % $ % &                             ",
"                                                ! ~ { % % ] ^ / % $ % &                             ",
"                                            ( _ : % # < [ [ } | % $ % &                             ",
"                                          1 2 % % 3 4 5 6 7 8 9 % $ % &                             ",
"                                      0 a b % % c d e f g h i j % $ % &                             ",
"                                    k l ; % 3 m n ] ) i 7 o o p % $ % &                             ",
"                                q n % % r s 5 t u 8 ~ v i w 8 ] % $ % &                             ",
"                            x 5 y % % z A B A C D g E ~ F G } H % $ % &                             ",
"                          I g J % - / K L M E N h ) O P F } 6 Q % $ % &                             ",
"                        R S $ % T U d K V W P i } c O X E X R Y % $ % &                             ",
"                        % $ % 2 Z `  ...G N +.s } @. .n #.$.Y T % $ % &                             ",
"                        % $ % N %.&.*.=.-.N o F h &.a ../ ;.;.@ % $ % &                             ",
"                        % $ % >.w @ ,.'.-.9 } c ).a Y  .) !.#.C % $ % &                             ",
"                        % $ % ~.{., ].>.~ v G C V ^./.M @./  .} % $ % &                             ",
"                        % $ % (.T -.D _.Q h ).:.<.[.Y }.^. .|.v % $ % &                             ",
"                        % $ % 1., 2.H W u f ;.3.4.a 5.}.#.6.;.F % $ % &                             ",
"                        % $ % 7.f s @ g O E ).O Y }.8.}.Y Y #.E % $ % &                             ",
"                        % $ % 9.~ 0.C f ..t #.&.a.b. .).M !.c.{.% $ % &                             ",
"                        % $ % d.t ~ 8 C $.c t F &.M  .;.;.$.~ , % $ % &                             ",
"                        % $ % d.w ).X w X c j e.f.;.n  .c w 8 H % $ % &                             ",
"                        % $ % g.h } c 0.&.4.4 h.i.B 4 ) u 8 *.j.% $ % &                             ",
"                        % $ % k.~ c $.O M c.6 8.l.m.Z G j @ i 7 % $ % &                             ",
"                        % $ % d.E ).E 6 V $.8 2 V @.n.o.Q {.j g % $ % &                             ",
"                        % $ % ~.i W 6 ) F Q c.p.q.@ r.s.t.@ {.2 % # % &                             ",
"                        % $ % u.s w C X v v c @.~ w ] [.v.;.{.j % # % &                             ",
"                        % $ % 1.W g w.F P v t n x.|.j 2 y.z.O H % ; % &                             ",
"                        % $ % A.j j @ w.7 w...<.] w.D {.8.B.C...D.% % E.                            ",
"                        % $ % 3 7 v F.=._.s s } /.Q 7 &.;.).G.U H.% % E.                            ",
"                        % $ % I.J.+.,.w.s -.{.f K.s ] M G u }.L.= { % &                             ",
"                        % $ % M.'.T +.D {.o G ..|.v N.X F.7 c ^.v.O % O.  P.Q.                      ",
"                        % $ % : >.+.7 F j 7 N R.S.!.r.u w.D Q c T.U.V.W.X.Y.Z.`. +.+                ",
"                        % $ % b F._.F.J.u v E f h ++a u 7 o {.*.@+#+$+%+&+*+=+-+;+>+,+              ",
"                        % $ % b P w.D ) [.w C @ 8 X W j {.7 F.g.; '+)+!+~+{+]+^+/+(+_+:+            ",
"                        % $ % M.9 C ++F u G F ++++*.{.{.j T <+[+}+|+1+2+3+4+5+6+7+8+9+0+a+          ",
"                        % $ % b+) ] } j i C ~ &.$.s j 7 y $ % c+d+e+f+g+h+i+j+k+l+m+n+o+p+q+        ",
"                        % $ % H.4.@.).N.O O f *.G P '.r+% % l s+t+u+v+w+x+y+z+A+B+C+D+E+F+G+H+      ",
"                        % $ % (.t f c.4.} W 8 *.F.(.J % % c.I+  J+K+L+M+N+O+P+Q+R+S+i+T+U+V+W+      ",
"                        % $ % d.X+M n  .c.Q t Y+Z+$ % ~.`+0      @.@+@@@#@$@%@&@*@=@-@;@>@,@'@)@    ",
"                        % $ % z 4.a Y } v 9 3 % % !@#.        H+~@{@]@^@/@(@_@:@<@[@}@|@1@2@3@      ",
"                        % $ % b P C G o p { % % H 4@        5@  6@7@^@8@9@0@a@b@c@d@e@f@g@h@i@      ",
"                        % $ % j@9 j z k@% % 7.[ l@              m@n@o@p@q@q@q@0@r@s@t@u@v@w@        ",
"                        % $ % b +.j@# % % ~ x@                y@z@A@B@r@q@q@q@q@(@C@D@E@F@G@        ",
"                        % $ % k@{ % # I.H@                    y@I@J@K@L@q@q@q@q@M@N@O@P@Q@  H+      ",
"                        % $ $ % % r+6 R@                        H+H+S@T@U@V@W@X@Y@Z@`@ #)@( 5@    5@",
"                        % $ % % P .#                              +#)@@###$#%#&#*#=#-#      5@    5@",
"                        % % ;#>#x                                   )@Q.)@X.,#'#)#                  ",
"                        % w.x@                                                                      ",
"                        b.                                                                          "};
