/* XPM */
static char *AffineTransform[] = {
/* columns rows colors chars-per-pixel */
"32 32 77 1 ",
"  c #4A4A4A",
". c #4D4D4D",
"X c #545454",
"o c #555555",
"O c #565656",
"+ c #575757",
"@ c #585858",
"# c #595959",
"$ c #5A5A5A",
"% c #5B5B5B",
"& c #5C5C5C",
"* c #5D5D5D",
"= c #5E5E5E",
"- c #5F5F5F",
"; c #696969",
": c #6C6C6C",
"> c #6E6E6E",
", c #6F6F6F",
"< c #717171",
"1 c #757575",
"2 c #8D8D8D",
"3 c #8E8E8E",
"4 c #8F8F8F",
"5 c #919191",
"6 c #9D9D9D",
"7 c #9F9F9F",
"8 c #A2A2A2",
"9 c #ACACAC",
"0 c #B2B2B2",
"q c #B5B5B5",
"w c #BDBDBD",
"e c #BFBFBF",
"r c #C0C0C0",
"t c #C2C2C2",
"y c #C4C4C4",
"u c #C5C5C5",
"i c #C6C6C6",
"p c #C7C7C7",
"a c #C8C8C8",
"s c #C9C9C9",
"d c #CACACA",
"f c #CBCBCB",
"g c #CCCCCC",
"h c #CDCDCD",
"j c #CECECE",
"k c #D0D0D0",
"l c #D3D3D3",
"z c #D4D4D4",
"x c #D5D5D5",
"c c #D6D6D6",
"v c #D7D7D7",
"b c #D9D9D9",
"n c #DCDCDC",
"m c #DEDEDE",
"M c #E2E2E2",
"N c #E5E5E5",
"B c #E6E6E6",
"V c #E7E7E7",
"C c #E8E8E8",
"Z c #EAEAEA",
"A c #EBEBEB",
"S c #ECECEC",
"D c #EDEDED",
"F c #EEEEEE",
"G c #EFEFEF",
"H c #F5F5F5",
"J c #F6F6F6",
"K c #F7F7F7",
"L c #F8F8F8",
"P c #F9F9F9",
"I c #FAFAFA",
"U c #FBFBFB",
"Y c #FCFCFC",
"T c #FDFDFD",
"R c #FEFEFE",
"E c #FFFFFF",
"W c None",
/* pixels */
"WWWWWWWWWWWWWWWWWWWWWWWWWWWWWWWW",
"WWWWWWWWWWWWWW;yy>WWWWWWWWWWWWWW",
"WWWWWWWWWWWW1eEEEEe1WWWWWWWWWWWW",
"WWWWWWWWWW;rEEKKKHEEr;WWWWWWWWWW",
"WWWWWWWW<eEELLLLLKLEEEe<WWWWWWWW",
"WWWWWW>yLELLLLLLLLLLLLELy>WWWWWW",
"WWWW>eEEKLLLLLLLLLLLLLLLEEe>WWWW",
"WW 9EELLELLLLELELLLLLLLELLEE0.WW",
"WW%rxGLLLKLLLLLLLLLLLLLLLLKGn&WW",
"WW%effxHLELLLLLLLLLLLLLLKHAAb&WW",
"WW+eggfflHELLLELLLKLLLKGAAAGb&WW",
"WW+wgffffyxGELLLLLLLKHAAAAAGb&WW",
"WW%wffggfffflGLLLLKGAAAAAAAGb&WW",
"WW+wgfgggfgffyxALHAAAGAAAAAGb&WW",
"WW%wgffggfgggfffAAAAAAAAAAAGb&WW",
"WW%wgggggggggfffGAAAAAAAAAGGb&WW",
"WW+wgfffgffgffffAAAAAAAAAAAGx&WW",
"WW%wgffggfggffffGAAAAAAGAAAAb&WW",
"WW%wggfgfffgffffGAAAAAAAAAAGb&WW",
"WW%eggffgffgffffAAAAAAGAAGAGb&WW",
"WW%egggggffgffgfGAAGAAAAAAAGb&WW",
"WW+wggfgfffggfgfAAAAAAGAAAAGb&WW",
"WW%eggfggfffffffGAAAAAAAAAAGn&WW",
"WW+0xffgfgggffffAAAAGAAAAAALl+WW",
"WWW%2flgggfggfffGAAAAAAAGKA6&WWW",
"WWWWW+5yxggfgfffAAAAAGAKN6%WWWWW",
"WWWWWWW%2yxgffgfGAAAGKN6&WWWWWWW",
"WWWWWWWWW+2fxggfAAGKN6%WWWWWWWWW",
"WWWWWWWWWWW+5rbyAKM8+WWWWWWWWWWW",
"WWWWWWWWWWWWW%2fA6&WWWWWWWWWWWWW",
"WWWWWWWWWWWWWWW%%WWWWWWWWWWWWWWW",
"WWWWWWWWWWWWWWWWWWWWWWWWWWWWWWWW"
};
